<?xml version="1.0" standalone="no"?>
<!DOCTYPE svg PUBLIC "-//W3C//DTD SVG 1.1//EN" "http://www.w3.org/Graphics/SVG/1.1/DTD/svg11.dtd" >
<svg xmlns="http://www.w3.org/2000/svg">
<metadata></metadata>
<defs>
<font id="electroregular" horiz-adv-x="1599" >
<font-face units-per-em="2048" ascent="1536" descent="-512" />
<missing-glyph horiz-adv-x="782" />
<glyph horiz-adv-x="0" />
<glyph unicode="&#xd;" horiz-adv-x="782" />
<glyph horiz-adv-x="0" />
<glyph horiz-adv-x="0" />
<glyph unicode=" "  horiz-adv-x="782" />
<glyph unicode="&#x09;" horiz-adv-x="782" />
<glyph unicode="&#xa0;" horiz-adv-x="782" />
<glyph unicode="!" horiz-adv-x="401" d="M82 111q0 47 35 81.5t86 34.5q47 0 81.5 -34.5t34.5 -81.5q0 -51 -34.5 -86t-81.5 -35q-51 0 -86 34.5t-35 86.5zM131 111q0 -31 21.5 -51.5t50.5 -20.5t48 20.5t19 51.5q0 29 -19 48t-48 19t-50.5 -19.5t-21.5 -47.5zM176 299v1221q0 27 27 26q23 0 22 -26v-1221 q1 -25 -22 -25q-27 0 -27 25z" />
<glyph unicode="&#x22;" horiz-adv-x="374" d="M82 1044v476q0 10 7 18t17 8t18.5 -8t8.5 -18v-476q0 -12 -8.5 -19t-18.5 -7q-25 0 -24 26zM240 1044v476q0 10 7 18t19 8q10 0 17.5 -8t7.5 -18v-476q0 -12 -7.5 -19t-17.5 -7q-27 0 -26 26z" />
<glyph unicode="#" horiz-adv-x="1955" d="M49 530q0 10 7 17.5t18 7.5h426l274 432h-416q-10 0 -17 8.5t-7 18.5q0 25 24 24h449l311 496q6 10 21 10q27 0 26 -26q0 -8 -2 -13l-295 -467h514l314 496q6 10 18 10q10 0 19.5 -8t9.5 -18q0 -4 -4 -13l-297 -467h440q25 0 25 -24q0 -10 -7.5 -18.5t-17.5 -8.5h-471 l-276 -432h464q27 0 27 -25q0 -27 -27 -26h-495l-320 -502q-6 -12 -20 -12t-21.5 9t-7.5 19q0 4 4 13l303 473h-514l-317 -502q-10 -12 -25 -12q-10 0 -17 8t-7 18q0 6 4 15l301 473h-393q-10 0 -17.5 7t-7.5 19zM561 555h514l275 432h-514z" />
<glyph unicode="$" horiz-adv-x="1513" d="M63 1004q0 2 1.5 3t1.5 3q33 117 95 215t145 169.5t182.5 115.5t205.5 55v223q0 10 7.5 17t17.5 7q12 0 19 -7t7 -17v-221q117 0 224.5 -40t199 -113t160 -175t107.5 -227q0 -12 -6.5 -22.5t-16.5 -10.5q-23 0 -29 18q-35 117 -98 212.5t-147 164t-184.5 105.5t-209.5 37 v-775l498 -221q16 -6 17 -24q0 -109 -41 -203t-111 -166t-163 -114t-200 -44v-307q0 -10 -7 -17t-19 -7q-10 0 -17.5 7t-7.5 17v307q-102 8 -191 52.5t-155.5 115t-104.5 162.5t-38 197q0 10 7 17t17 7q27 0 27 -24q0 -94 34 -177t93 -146.5t139 -103.5t172 -49v687 l-614 272q-16 8 -17 25zM123 1014l571 -250v749q-98 -10 -186 -49t-163 -103.5t-132 -152.5t-90 -194zM745 20q94 2 177.5 39t145.5 99.5t99 144.5t41 176l-463 205v-664z" />
<glyph unicode="%" horiz-adv-x="1384" d="M82 1149q0 80 27.5 150.5t75.5 123t114 83t141 30.5h801q10 0 17.5 -9t7.5 -18q0 -4 -4 -12l-953 -1503q-6 -12 -22 -12q-10 0 -17.5 8t-7.5 16q0 12 4 17l926 1462h-752q-66 0 -121 -25.5t-97 -72t-65.5 -107.5t-23.5 -131q0 -74 24.5 -137.5t65.5 -110.5t97.5 -74.5 t119.5 -27.5q61 0 117.5 27.5t97.5 74.5t65.5 110.5t24.5 137.5q0 70 -21.5 118t-59.5 95q-6 8 -7 16q0 10 8.5 17.5t18.5 7.5q18 0 38.5 -25.5t37 -64.5t27 -83t10.5 -81q0 -84 -29 -156.5t-77 -127t-112.5 -86t-138.5 -31.5t-139 31.5t-113.5 86t-77 127t-28.5 156.5z M745 303q0 63 21.5 120.5t59.5 100.5t89.5 67.5t108.5 24.5t108.5 -24.5t89.5 -67.5t59.5 -100t21.5 -121q0 -66 -21.5 -123t-59.5 -99t-89.5 -66.5t-108.5 -24.5t-108.5 24.5t-89.5 66.5t-59.5 99.5t-21.5 122.5zM797 303q0 -55 18.5 -102t49 -83t71.5 -56.5t88 -20.5 t88 20.5t71.5 56.5t49 83t18.5 102q0 53 -18.5 101.5t-49 84t-71.5 56t-88 20.5t-88 -20.5t-71.5 -56t-49 -84t-18.5 -101.5z" />
<glyph unicode="&#x26;" horiz-adv-x="1462" d="M82 442q0 16 18 27l1026 410q-4 127 -53 238.5t-133 196.5t-195.5 136t-238.5 55v-747q0 -10 -7 -17.5t-18 -7.5q-10 0 -18 7.5t-8 17.5v774q0 10 8 17t18 7q139 0 266 -54t222.5 -148t152 -221t56.5 -273q0 -12 -17 -22l-1026 -410q2 -90 39 -166t99.5 -129t147.5 -83 t187 -30q98 0 185.5 37t152 101.5t102 150.5t37.5 185q0 27 25 26q14 0 25 -12l276 -475q0 -4 1 -6t1 -7q0 -10 -6 -19t-18 -9q-14 0 -25 14l-234 404q-16 -94 -62 -175t-114.5 -140.5t-158 -93.5t-187.5 -34q-106 0 -201.5 34t-168 95.5t-114.5 149.5t-42 196z" />
<glyph unicode="'" horiz-adv-x="217" d="M82 1044v476q0 10 7 18t17 8t18.5 -8t8.5 -18v-476q0 -12 -8.5 -19t-18.5 -7q-25 0 -24 26z" />
<glyph unicode="(" horiz-adv-x="675" d="M82 768q0 190 37 364.5t103.5 306.5t156.5 211t196 79q23 0 23 -25q0 -23 -23 -23q-94 0 -176 -74.5t-142 -200.5t-95 -292t-35 -346q0 -182 35 -347t95 -291t142 -200.5t176 -74.5q23 0 23 -25q0 -23 -23 -23q-106 0 -196 78t-156.5 209t-103.5 305t-37 369z" />
<glyph unicode=")" horiz-adv-x="675" d="M82 -170q0 25 22 25q94 0 176 74.5t142.5 200.5t95.5 291t35 347q0 180 -35 346t-95.5 292t-142 200.5t-176.5 74.5q-23 0 -22 23q0 25 22 25q106 0 196.5 -79t157 -211t103.5 -306.5t37 -364.5q0 -195 -38 -369t-103.5 -305t-156 -209t-196.5 -78q-23 0 -22 23z" />
<glyph unicode="*" horiz-adv-x="772" d="M82 1282q0 10 8 17.5t19 7.5h235l-119 202q-4 8 -4 13q0 10 9.5 17t19.5 7q14 0 20 -10l117 -203l115 203q6 10 20 10q10 0 20.5 -6t10.5 -18q0 -4 -4 -13l-119 -202h234q12 0 19 -7.5t7 -17.5q0 -27 -26 -27h-234l119 -200q4 -8 4 -15q0 -10 -7 -17t-20 -7q-16 0 -24 12 l-115 203l-117 -203q-10 -12 -20 -12q-16 0 -22.5 7t-6.5 17q0 6 4 15l119 200h-235q-10 0 -18.5 7.5t-8.5 19.5z" />
<glyph unicode="+" horiz-adv-x="1052" d="M82 530q0 10 8 18.5t19 8.5h391v391q0 12 8 19.5t18 7.5q25 0 25 -27v-391h393q12 0 19.5 -8t7.5 -19q0 -25 -27 -24h-393v-393q0 -10 -7 -18.5t-18 -8.5q-10 0 -18 8t-8 19v393h-391q-10 0 -18.5 7t-8.5 17z" />
<glyph unicode="," horiz-adv-x="403" d="M82 111q0 47 36 81.5t85 34.5q47 0 83 -34.5t36 -81.5q0 -29 -10.5 -45.5t-18.5 -40.5l-141 -218q-6 -12 -21 -12q-12 0 -19.5 7.5t-7.5 17.5q0 12 5 16l100 154q-51 0 -89 33.5t-38 87.5zM131 111q0 -29 21.5 -50.5t50.5 -21.5t49 21.5t20 50.5t-20.5 48t-48.5 19 q-29 0 -50.5 -19t-21.5 -48z" />
<glyph unicode="-" horiz-adv-x="692" d="M82 530q0 10 8 18.5t19 8.5h475q12 0 19 -8.5t7 -18.5q0 -25 -26 -24h-475q-10 0 -18.5 7t-8.5 17z" />
<glyph unicode="." horiz-adv-x="401" d="M82 111q0 47 35 81.5t86 34.5q47 0 81.5 -34.5t34.5 -81.5q0 -51 -34.5 -86t-81.5 -35q-51 0 -86 34.5t-35 86.5zM131 111q0 -31 21.5 -51.5t50.5 -20.5t48 20.5t19 51.5q0 29 -19 48t-48 19t-50.5 -19.5t-21.5 -47.5z" />
<glyph unicode="/" horiz-adv-x="1163" d="M86 16q0 6 6 17l952 1503q6 10 19 10q10 0 19.5 -7t9.5 -17q0 -6 -5 -15l-952 -1503q-10 -12 -22 -12q-10 0 -18.5 7t-8.5 17z" />
<glyph unicode="0" d="M82 770q0 166 56.5 311.5t154.5 253t228 170t278 62.5q223 0 403 -137q8 -10 8 -25q0 -4 -4 -12l-704 -1082q-10 -12 -21 -12q-10 0 -19 6t-9 17q0 6 6 16l692 1063q-78 59 -168 87t-184 28q-137 0 -258 -57.5t-212 -158t-143.5 -236.5t-52.5 -294t52.5 -294 t143.5 -237.5t212 -160t258 -58.5t259 58.5t213 160t143 237.5t52 294q0 145 -45 270t-131 230q-6 8 -6 18t6 17.5t19 7.5q14 0 20 -8q188 -231 189 -535q0 -164 -56.5 -310.5t-155 -255t-229.5 -172t-278 -63.5t-277.5 63.5t-227.5 172t-154.5 254t-57.5 311.5z" />
<glyph unicode="1" horiz-adv-x="507" d="M82 1382v127q0 10 8 18.5t19 8.5h290q12 0 19.5 -8t7.5 -19q0 -25 -27 -24h-266v-78h266q27 0 27 -29v-1362q-13 -22 -31 -22q-27 0 -26 26v1336h-260q-27 0 -27 26z" />
<glyph unicode="2" horiz-adv-x="1413" d="M82 774q0 166 54 307.5t146.5 246t215.5 163.5t262 59q113 0 216 -46t182 -125t126 -183t47 -223q0 -178 -108.5 -339t-317.5 -259l-690 -326h1034v78h-446q-25 0 -25 23q0 25 25 24h469q23 0 22 -24v-125q1 -25 -22 -25h-1166q-10 0 -16 7t-6 18q0 12 12 22l789 371 q135 63 215 143t120 158t51 145.5t11 108.5q0 119 -46 216t-120 166.5t-168 107.5t-188 38q-131 0 -245 -57.5t-199 -155.5t-133 -231t-48 -283q0 -10 -8 -16t-18 -6t-18.5 6t-8.5 16z" />
<glyph unicode="3" horiz-adv-x="1413" d="M82 360q0 12 6 21.5t16 9.5q18 0 25 -18q18 -76 71.5 -140.5t129.5 -112.5t172 -75t200 -27q119 0 225.5 34t184.5 93.5t124 137t46 168.5q0 74 -29.5 144.5t-85 126.5t-135.5 91t-182 35l-72 -4l-327 -318q-8 -4 -19 -4h-145q-23 0 -23 23q0 10 8 18l885 926h-971 q-23 0 -22 24q0 23 22 23h1028q10 0 16.5 -7t6.5 -16q0 -10 -6 -16l-887 -930h82l328 316q2 8 14 8l82 4q98 0 185 -33t153.5 -92t104.5 -141t38 -178q0 -102 -51 -189.5t-137 -153t-200 -102.5t-241 -37q-115 0 -217 30t-185 82t-140.5 123.5t-77.5 155.5z" />
<glyph unicode="4" horiz-adv-x="1329" d="M82 403q0 10 8 17l952 1108q6 8 19 8h162q8 0 16 -7t8 -18q0 -10 -6 -16l-838 -960q-6 -8 -20 -9q-10 0 -17.5 7.5t-7.5 17.5t7 16l800 918h-92l-909 -1055h794q12 0 19.5 -7t7.5 -17v-390q0 -26 -27 -26q-10 0 -17 7t-7 19v363h-825q-10 0 -18.5 6t-8.5 18z" />
<glyph unicode="5" horiz-adv-x="1433" d="M82 401q0 25 27 25q20 0 20 -20q8 -82 59.5 -153t131 -123t181 -83t214.5 -31q123 0 229.5 34t186 91.5t126 135t46.5 165.5t-46.5 165t-126 134.5t-186 91t-229.5 33.5q-31 0 -52.5 -8t-27.5 -12l-307 -332q-4 -2 -8.5 -5t-10.5 -3h-137q-10 0 -17.5 8t-7.5 16 q0 10 7 17l866 983q6 6 18 6h260q23 0 23 -23q0 -10 -6 -17t-17 -7h-249l-826 -934h76l303 326q20 20 55 26t58 6q129 0 244.5 -36.5t202.5 -100t138.5 -149.5t51.5 -185q0 -100 -51.5 -186t-138.5 -149.5t-202.5 -100.5t-244.5 -37q-123 0 -233.5 34t-196.5 92.5 t-140.5 137t-62.5 168.5z" />
<glyph unicode="6" horiz-adv-x="1273" d="M82 504q0 6 4 14l578 1012q6 16 24 16q33 0 33 -30q0 -6 -4 -15l-574 -1005q0 -106 36 -192.5t100.5 -147t155.5 -93t202 -32.5q102 0 192.5 26.5t157 73.5t105 109.5t38.5 134.5v119h-765q-10 0 -20.5 8t-10.5 22q0 10 10 20.5t21 10.5h796q14 0 22.5 -10t8.5 -21v-149 q0 -86 -45 -160t-121 -128t-176 -86t-213 -32q-123 0 -225.5 38t-175 107.5t-113.5 169t-41 220.5z" />
<glyph unicode="7" horiz-adv-x="1259" d="M82 1382v127q0 10 8 18.5t19 8.5h1044q10 0 17.5 -8t7.5 -19q0 -25 -25 -24h-1020v-78h942q27 0 27 -27q0 -4 -1 -6t-1 -6l-744 -1366q-8 -12 -24 -12q-25 0 -25 26q0 6 2 11l723 1329h-923q-10 0 -18.5 7t-8.5 19z" />
<glyph unicode="8" horiz-adv-x="1390" d="M82 305q0 45 12 89t34 80t53.5 58.5t68.5 24.5h866q66 70 103.5 178.5t37.5 216.5q0 117 -44 219.5t-120.5 179t-178 121t-218.5 44.5t-219 -44.5t-179 -121t-121 -179t-44 -219.5q0 -82 18.5 -138t61.5 -118h803q27 0 26 -24q0 -27 -26 -27h-817q-8 0 -21 12 q-47 68 -71.5 133.5t-24.5 161.5q0 125 49 238t132 195.5t194.5 132t238.5 49.5q125 0 236.5 -49.5t194.5 -133.5t132.5 -195.5t49.5 -236.5q0 -123 -43 -241.5t-119 -196.5q-8 -8 -19 -8h-878q-16 -2 -36.5 -18.5t-38 -43t-30 -62.5t-12.5 -77q0 -53 19.5 -99t54.5 -80 t81 -54.5t99 -20.5h617q55 0 102 17.5t81 48t52 71.5t18 91q0 86 -51 153q-6 6 -6 14q0 27 25 27q20 0 35.5 -22.5t25.5 -54t16.5 -64.5t6.5 -53q0 -59 -23.5 -109.5t-64.5 -88.5t-97.5 -59.5t-119.5 -21.5h-617q-63 0 -118.5 24.5t-97.5 65.5t-65.5 97.5t-23.5 117.5z" />
<glyph unicode="9" horiz-adv-x="1390" d="M82 948q0 127 48 239.5t132 196.5t195.5 133.5t238.5 49.5q125 0 236.5 -49.5t195.5 -133.5t132.5 -195.5t48.5 -236.5q0 -6 -2 -10l-443 -938q-10 -14 -22 -14q-10 0 -18.5 8t-8.5 18q0 6 2 11l440 931q0 115 -45 216.5t-120.5 177t-178 120t-217.5 44.5 q-117 0 -219 -44.5t-179 -121t-121 -179t-44 -219.5q0 -258 176 -388t520 -130q10 0 18.5 -7t8.5 -19q0 -10 -8 -17.5t-19 -7.5q-362 0 -554.5 143.5t-192.5 421.5z" />
<glyph unicode=":" horiz-adv-x="403" d="M82 111q0 47 35 81.5t86 34.5q47 0 81.5 -34.5t34.5 -81.5q0 -51 -34.5 -86t-81.5 -35q-51 0 -86 34.5t-35 86.5zM82 934q0 49 36 84t85 35q47 0 83 -35t36 -84t-36 -84t-83 -35q-49 0 -85 35t-36 84zM131 111q0 -31 21.5 -51.5t50.5 -20.5t48 20.5t19 51.5q0 29 -19 48 t-48 19t-50.5 -19.5t-21.5 -47.5zM131 934q0 -29 21.5 -49.5t50.5 -20.5t49 20.5t20 49.5t-20 48t-49 19t-50.5 -19t-21.5 -48z" />
<glyph unicode=";" horiz-adv-x="403" d="M82 109q0 47 36 82.5t85 35.5q47 0 83 -35.5t36 -82.5q0 -29 -9.5 -46.5t-19.5 -37.5l-141 -218q-8 -14 -21 -14q-10 0 -18.5 8.5t-8.5 18.5t5 14l100 154q-51 0 -89 33.5t-38 87.5zM82 934q0 49 36 84t85 35q47 0 83 -35t36 -84t-36 -84t-83 -35q-49 0 -85 35t-36 84z M131 109q0 -29 21.5 -50.5t50.5 -21.5t49 21.5t20 50.5t-20.5 49t-48.5 20q-29 0 -50.5 -20t-21.5 -49zM131 934q0 -29 21.5 -49.5t50.5 -20.5t49 20.5t20 49.5t-20 48t-49 19t-50.5 -19t-21.5 -48z" />
<glyph unicode="&#x3c;" horiz-adv-x="542" d="M82 543q0 6 2 10t6 8l330 316q6 4 16 4t19.5 -7.5t9.5 -17.5t-8 -18l-314 -295l314 -295q8 -8 8 -21q0 -24 -27 -24q-10 0 -18 8l-330 313q-4 4 -6 8.5t-2 10.5z" />
<glyph unicode="=" horiz-adv-x="1050" d="M82 403q0 10 8 18.5t19 8.5h835q12 0 19.5 -8.5t7.5 -18.5q0 -25 -27 -24h-835q-10 0 -18.5 7t-8.5 17zM82 530q0 10 8 18.5t19 8.5h835q12 0 19.5 -8.5t7.5 -18.5q0 -25 -27 -24h-835q-10 0 -18.5 7t-8.5 17z" />
<glyph unicode="&#x3e;" horiz-adv-x="548" d="M82 227q0 12 8 21l313 295l-313 295q-8 8 -8 18t9 17.5t20 7.5q10 0 16 -4l330 -316q4 -4 6 -8t2 -10t-2 -10.5t-6 -8.5l-330 -313q-8 -8 -18 -8q-27 0 -27 24z" />
<glyph unicode="?" horiz-adv-x="1163" d="M82 977q0 121 40 228.5t108.5 187.5t158.5 127t193 47q104 0 195 -48.5t159 -129t106.5 -187t38.5 -225.5q0 -4 -2 -7t-4 -7l-489 -678q-7 -11 -21 -11q-12 0 -18 7.5t-6 17.5q0 4 4 12l487 674q-2 111 -38 208t-97 169t-142 114t-173 42t-174 -43t-143.5 -117 t-96.5 -172.5t-35 -208.5q0 -10 -7 -17.5t-17 -7.5t-18.5 7.5t-8.5 17.5zM438 111q0 47 35 81.5t86 34.5q49 0 83 -34.5t34 -81.5q0 -51 -34 -86t-83 -35q-51 0 -86 34.5t-35 86.5zM489 111q0 -31 20.5 -51.5t49.5 -20.5t48.5 20.5t19.5 51.5q0 29 -19.5 48t-48.5 19 t-49.5 -19.5t-20.5 -47.5z" />
<glyph unicode="@" d="M82 770q0 166 56.5 314.5t153.5 259t227 175t280 64.5q147 0 278 -64.5t228.5 -175t154 -258t56.5 -315.5q0 -10 -7 -16l-354 -379q-12 -8 -20 -8q-10 0 -17.5 8t-7.5 18v320q-72 -152 -156 -239t-206 -87q-68 0 -125.5 29.5t-99.5 78t-64.5 110t-22.5 126.5q0 82 33 158 t88 134t128 94t155 36q78 0 147.5 -37t116.5 -102q2 -4 2 -15q0 -27 -25 -26q-8 0 -16 9t-19.5 22.5t-29 30t-41.5 30.5q-61 37 -135 37q-70 0 -133.5 -31t-112.5 -82t-78 -118.5t-29 -141.5q0 -55 19.5 -108.5t53.5 -93.5t82 -64.5t106 -24.5q106 0 179.5 84t151.5 248 q10 23 22.5 49.5t28.5 26.5q2 0 16.5 -4t14.5 -21v-364l303 323q-2 156 -55 293t-143 239.5t-211 161t-256 58.5q-139 0 -260 -59.5t-211 -163t-142.5 -242.5t-52.5 -297t52.5 -297t142.5 -242.5t210.5 -164t260.5 -60.5q92 0 178 27.5t161.5 80t138 126t105.5 166.5 q10 14 23 14q10 0 19.5 -8.5t9.5 -20.5q0 -2 -1 -4t-1 -4q-49 -98 -117 -178t-150 -135.5t-175 -85t-191 -29.5q-147 0 -278.5 65.5t-228.5 177t-153.5 259t-56.5 313.5z" />
<glyph unicode="A" horiz-adv-x="1464" d="M59 10l3 8q4 9 21 52t56 135t111 263t182.5 434t272.5 646q4 14 22 15q8 0 14.5 -5.5t10.5 -9.5l374 -889q2 -4 2 -10q0 -16 -14 -22l-772 -365q-4 -2 -10 -2q-27 0 -27 25q0 18 17 24l749 353l-344 808l-594 -1411l1012 488q2 0 4 1t4 1q10 0 15.5 -5t9.5 -9l213 -500 q2 -4 2 -10q0 -10 -9.5 -17.5t-19.5 -7.5q-16 0 -23 16l-198 471l-1047 -501q-4 -2 -10 -2q-16 0 -21.5 8t-5.5 18z" />
<glyph unicode="B" horiz-adv-x="1228" d="M82 25v1488q0 10 7 17.5t17 7.5h431q125 0 236.5 -47t195.5 -128t132 -191.5t48 -235.5q0 -127 -48 -232.5t-132 -182.5t-195.5 -120t-236.5 -43h-299q-10 0 -17.5 7.5t-7.5 17.5v1010q0 10 7 17t18 7q27 0 26 -24v-983h273q121 0 223 38.5t178 108.5t118 167t42 212 q0 117 -44 217t-120 175t-178.5 117t-218.5 42h-404v-1436h711q53 0 99 19.5t81 54.5t54.5 80t19.5 98q0 84 -51 152q-4 4 -5 14q0 27 27 27q18 0 32.5 -23.5t26 -54.5t16.5 -63.5t5 -51.5q0 -63 -23.5 -118.5t-65.5 -96.5t-97.5 -64.5t-118.5 -23.5h-738q-10 0 -17 7t-7 18 z" />
<glyph unicode="C" horiz-adv-x="1585" d="M82 766q0 170 58.5 316.5t157.5 254t229 169t276 61.5q113 0 221.5 -41t199.5 -114t159.5 -175t103.5 -225q2 -4 2 -11q0 -8 -6 -16t-17 -8q-20 0 -28 18q-35 117 -98.5 212.5t-146.5 164t-183.5 106.5t-206.5 38q-139 0 -261 -58.5t-212 -160t-143.5 -237.5t-53.5 -294 t53.5 -294t143.5 -236.5t212 -158t261 -57.5q98 0 191 32t173 90.5t143.5 141.5t104.5 185q6 16 23 16q27 0 26 -26q0 -2 -1 -4t-1 -4q-45 -109 -113.5 -198t-154.5 -152.5t-185.5 -97.5t-205.5 -34q-145 0 -276.5 61.5t-229.5 168t-156.5 252t-58.5 315.5z" />
<glyph unicode="D" horiz-adv-x="1388" d="M82 18v1491q0 10 7 18.5t17 8.5h510q143 0 269.5 -61.5t219.5 -166t146.5 -243.5t53.5 -295q0 -160 -55.5 -300t-149.5 -244.5t-219 -165t-265 -60.5h-383q-27 0 -26 27v1357q0 10 7 18.5t19 8.5q10 0 17.5 -8t7.5 -19v-1333h358q131 0 247 56.5t203 152.5t137 227 t50 283q0 150 -50 280t-137 227t-202.5 152.5t-247.5 55.5h-483v-1467q0 -24 -27 -24q-10 0 -17 7t-7 17z" />
<glyph unicode="E" horiz-adv-x="972" d="M82 530q0 2 4 15l565 991q6 10 21 10q27 0 26 -24q0 -8 -2 -13l-542 -952h704q10 0 17.5 -7t7.5 -18v-129q0 -25 -25 -24h-723v-328h723q25 0 25 -26q0 -10 -7.5 -17.5t-17.5 -7.5h-747q-12 0 -19.5 7t-7.5 18v378q0 27 27 27h720v76h-720q-10 0 -19.5 6t-9.5 18z" />
<glyph unicode="F" horiz-adv-x="952" d="M82 520q0 2 4 15l571 999q6 10 19 10q10 0 19.5 -7t9.5 -17q0 -4 -5 -13l-546 -960h704q10 0 17.5 -7.5t7.5 -17.5v-129q0 -25 -25 -24h-723v-355q0 -10 -7 -17t-17 -7q-12 0 -19.5 7t-7.5 17v379q0 27 27 27h720v76h-720q-10 0 -19.5 6t-9.5 18z" />
<glyph unicode="G" horiz-adv-x="1574" d="M82 770q0 166 57.5 311.5t156.5 253t231 170t280 62.5q117 0 225.5 -42t199.5 -118t158.5 -178.5t102.5 -222.5q0 -10 -4 -21.5t-19 -11.5q-20 0 -26 18q-35 117 -98.5 214.5t-146.5 166t-183.5 106.5t-208.5 38q-139 0 -262 -57.5t-214 -158t-144.5 -236.5t-53.5 -294 t53.5 -294t144.5 -237.5t214 -160t262 -58.5q100 0 196.5 36t177.5 100.5t145.5 153.5t103.5 196h-1076q-10 0 -17 7t-7 17q0 27 24 27h1112q6 0 15.5 -6t9.5 -19q0 -4 -1 -5t-1 -5q-37 -121 -106.5 -222t-159.5 -175t-196.5 -115t-219.5 -41q-150 0 -282 63.5t-230 172 t-155.5 255t-57.5 310.5z" />
<glyph unicode="H" horiz-adv-x="1148" d="M82 25v1495q0 10 7 18t17 8q27 0 27 -26v-1469h76v481q0 10 8 17.5t19 7.5h677q27 0 27 -25v-481h76v1469q0 26 24 26h2q25 0 25 -26v-1495q0 -10 -7.5 -17.5t-17.5 -7.5h-129q-10 0 -17 7t-7 18v481h-629v-481q0 -10 -7 -17.5t-17 -7.5h-130q-10 0 -17 7t-7 18z" />
<glyph unicode="I" horiz-adv-x="296" d="M123 14v1506q0 12 7 19t17 7q27 0 27 -26v-1506q0 -24 -27 -24q-10 0 -17 7t-7 17z" />
<glyph unicode="J" horiz-adv-x="966" d="M82 371v161q0 10 7 17.5t17 7.5h572q12 0 19.5 -7t7.5 -18q0 -27 -27 -26h-545v-135q0 -72 27.5 -136.5t75 -111.5t112 -75t135.5 -28q72 0 135.5 28t111.5 75t76 111.5t28 136.5v1151q0 10 7 17t19 7q10 0 17.5 -7t7.5 -17v-1151q0 -82 -32 -155t-86 -128t-127 -87 t-157 -32t-156.5 32t-127 87t-86 128t-31.5 155z" />
<glyph unicode="K" horiz-adv-x="993" d="M82 12v1510q0 10 7 17t17 7q27 0 27 -24v-1381l586 1381q4 16 22 16h133q29 0 29 -25q0 -4 -1 -5t-1 -5l-399 -973l393 -497q6 -6 6 -17q0 -10 -8 -17t-19 -7q-10 0 -16 10l-405 508q-6 6 -7 14q0 2 5 11l389 952h-80l-627 -1485q-8 -14 -24 -14q-12 0 -19.5 8t-7.5 16z " />
<glyph unicode="L" horiz-adv-x="958" d="M74 25q0 10 7 18t17 8h733v76h-725q-8 0 -16 8t-8 19v1368q0 10 7 17t20 7q10 0 17 -7t7 -17v-1344h725q10 0 17.5 -7t7.5 -17v-129q0 -10 -7.5 -17.5t-17.5 -7.5h-760q-10 0 -17 7t-7 18z" />
<glyph unicode="M" horiz-adv-x="1730" d="M82 20v1489q0 27 27 27h133q18 0 22 -16l602 -1438l598 1438q10 16 25 16h135q10 0 17.5 -7t7.5 -20v-1489q0 -10 -7.5 -17t-17.5 -7q-12 0 -19.5 7t-7.5 17v1465h-92l-616 -1479q-7 -16 -23 -16q-18 0 -22 16l-621 1479h-90v-1465q0 -10 -7 -17t-17 -7q-12 0 -19.5 7 t-7.5 17z" />
<glyph unicode="N" horiz-adv-x="1161" d="M82 20v1489q0 27 27 27h133q14 0 22 -12l764 -1409v1405q0 12 7 19t18 7q27 0 26 -26v-1504q1 -26 -26 -26q-14 0 -23 12l-805 1483h-92v-1465q0 -10 -7 -17t-17 -7q-12 0 -19.5 7t-7.5 17z" />
<glyph unicode="O" d="M82 768q0 168 57.5 314.5t155.5 254t229 169t277 61.5q147 0 277 -61.5t227.5 -169t155 -254t57.5 -314.5t-56.5 -313.5t-154 -253t-228.5 -170t-278 -62.5t-278.5 62.5t-228.5 170t-154.5 254t-57.5 312.5zM135 768q0 -158 52.5 -294t142.5 -237.5t211 -159t260 -57.5 q137 0 258 57.5t212 159t143 237.5t52 294t-52 294t-143 237.5t-212 159t-258 57.5q-139 0 -260 -57.5t-211 -159t-142.5 -237.5t-52.5 -294z" />
<glyph unicode="P" horiz-adv-x="1169" d="M82 14v1495q0 10 7 18.5t17 8.5h457q111 0 208 -41t170 -109.5t115 -160.5t42 -197q0 -111 -42 -206t-115 -165.5t-170 -110.5t-208 -40h-325q-25 0 -25 26v863q0 10 7 17t18 7q12 0 19 -7t7 -17v-838h299q100 0 188.5 36t154 99.5t103.5 149.5t38 186q0 92 -38 175 t-103.5 145.5t-153.5 99.5t-189 37h-430v-1471q0 -10 -8 -17t-19 -7q-10 0 -17 7t-7 17z" />
<glyph unicode="Q" horiz-adv-x="1601" d="M82 768q0 168 56.5 314.5t153.5 254t227 169t280 61.5q147 0 278 -61.5t229.5 -169t155 -254t56.5 -314.5q0 -98 -20.5 -186t-61.5 -174q-37 -80 -89.5 -150t-115.5 -123l125 -301q2 -4 2 -12q0 -10 -7.5 -17.5t-17.5 -7.5q-18 0 -22 17l-330 784q-2 4 -2 10q0 10 7 18.5 t18 8.5q18 0 24 -17l182 -434q121 111 187.5 260.5t66.5 323.5q0 160 -52 296t-142 236.5t-212 158t-259 57.5t-258 -57.5t-212 -158t-143.5 -236.5t-52.5 -296q0 -158 52.5 -294t143.5 -236.5t212 -157.5t258 -57q139 0 258 59q2 0 4 1t6 1q10 0 19.5 -6t9.5 -19 q0 -23 -37 -39t-86 -27t-98.5 -17.5t-75.5 -6.5q-150 0 -280 62.5t-227 171t-153.5 254t-56.5 311.5z" />
<glyph unicode="R" horiz-adv-x="1175" d="M82 14v1497q0 25 24 25h457q111 0 208 -41t170 -111.5t115 -167t42 -204.5q0 -104 -38 -196.5t-102.5 -163t-153.5 -117t-190 -56.5l367 -438q4 -8 4 -14q0 -12 -8 -19.5t-16 -7.5h-195q-12 0 -18 10l-551 664q-6 6 -7 16q0 25 25 25q14 0 21 -10l542 -654h127l-362 436 q-6 6 -6 17q0 6 5 15t21 9q100 0 188.5 38t154 103.5t103.5 153.5t38 189q0 100 -38 186t-102.5 149.5t-153.5 100.5t-190 37h-430v-1471q0 -24 -27 -24q-25 0 -24 24z" />
<glyph unicode="S" horiz-adv-x="1550" d="M76 379q0 10 5 21.5t19 11.5q18 0 27 -19q25 -82 85 -150.5t146 -117.5t190.5 -77t217.5 -28q127 0 242.5 40t207 106.5t147.5 154t62 183.5h-1026q-29 10 -28 31q0 6 6 12l586 987q2 12 18 12q10 0 18.5 -7t8.5 -17t-2 -15l-564 -950h1012q10 -4 17.5 -12t7.5 -19 q0 -106 -56.5 -206.5t-154 -178.5t-226.5 -125t-276 -47q-121 0 -233.5 31t-204.5 85t-158 129t-94 165z" />
<glyph unicode="T" horiz-adv-x="1290" d="M82 1382v129q0 10 7 17.5t17 7.5h1082q24 0 24 -23q0 -12 -7 -20t-17 -8h-1055v-76h504q8 0 17.5 -7t9.5 -20v-1368q-4 -10 -10.5 -17t-16.5 -7q-25 0 -25 24v1344h-506q-10 0 -17 7t-7 17z" />
<glyph unicode="U" horiz-adv-x="1331" d="M82 502v1018q0 10 7 18t17 8t18.5 -8t8.5 -18v-1018q0 -100 36 -187.5t99.5 -153t146.5 -103.5t179 -38t180 38t147.5 103.5t99.5 152.5t36 188v1007q0 10 7 18.5t19 8.5h138q10 0 18 -8t8 -19v-1493q0 -12 -8 -19t-18 -7q-25 0 -25 26v1469h-88v-983q0 -111 -40 -208 t-109.5 -169t-164 -114t-200.5 -42t-199.5 42t-163 114t-109.5 169t-40 208z" />
<glyph unicode="V" horiz-adv-x="1142" d="M82 25v1486q0 25 24 25h138q25 0 24 -25v-1138q0 -10 -7 -17.5t-17 -7.5t-18.5 7t-8.5 18v1112h-84v-1434h94l820 1481q10 14 22 14q27 0 27 -26q0 -8 -2 -11l-830 -1497q-10 -12 -24 -12h-134q-25 0 -24 25z" />
<glyph unicode="W" horiz-adv-x="1847" d="M61 1518q0 10 4.5 20t20.5 10q18 0 25 -20l303 -1477h92l389 1485q8 18 27 18q18 0 22 -18l389 -1485h92l306 1477q4 20 22 20q14 0 21.5 -9t7.5 -21l-309 -1498q-7 -20 -25 -20h-135q-16 0 -25 18l-366 1412l-369 -1412q-4 -18 -27 -18h-133q-20 0 -24 20z" />
<glyph unicode="X" horiz-adv-x="1382" d="M41 1513q0 10 7 17.5t18 7.5q16 0 24 -10l485 -756q2 -4 3 -14q0 -10 -3 -13l-434 -694h86l914 1471q6 14 22 14h140q10 0 17 -8t7 -19q0 -10 -2 -12l-596 -977l307 -491q2 -4 4 -8.5t2 -8.5q0 -10 -8 -16t-18 -6q-18 0 -23 10l-315 504q-4 12 -4 16l4 12l577 953h-79 l-912 -1475q-10 -10 -20 -10h-150q-10 0 -19 7t-9 18q0 4 2 7t4 7l450 719l-477 741q-4 8 -4 14z" />
<glyph unicode="Y" horiz-adv-x="1292" d="M53 1520q0 10 6.5 17t16.5 7q20 0 28 -18l347 -996v-8q0 -10 -5 -12l-292 -459h86l944 1481q10 14 24 14q10 0 16.5 -8t6.5 -18t-2 -13l-953 -1497q-8 -10 -24 -10h-146q-14 0 -21 7t-7 18q0 4 2 7t4 7l311 485l-340 987q-2 2 -2 9z" />
<glyph unicode="Z" horiz-adv-x="1136" d="M66 23q0 8 4 16l919 1446h-899q-10 0 -17 7t-7 17q0 12 7 19.5t17 7.5h946q10 0 17.5 -8t7.5 -19q0 -8 -2 -12l-922 -1446h873v78h-656q-10 0 -17 7t-7 18q0 10 7 18t17 8h682q10 0 17.5 -8t7.5 -18v-127q0 -27 -25 -27h-946q-10 0 -17 5t-7 18z" />
<glyph unicode="[" horiz-adv-x="428" d="M68 -82v1700q0 20 20 20h213v62h-213q-20 0 -20 20t20 21h234q20 0 20 -21v-102q0 -20 -20 -21h-213v-1658h213q20 0 20 -21v-102q0 -20 -20 -21h-234q-20 0 -20 21q0 20 20 20h213v62h-213q-20 0 -20 20z" />
<glyph unicode="\" horiz-adv-x="1165" d="M86 1522q0 10 9 17t20 7q12 0 18 -10l952 -1503q6 -10 7 -17q0 -10 -8.5 -17t-18.5 -7q-14 0 -23 12l-952 1503q-4 8 -4 15z" />
<glyph unicode="]" horiz-adv-x="428" d="M68 -82q0 20 20 21h213v1658h-213q-20 0 -20 21v102q0 20 20 21h234q20 0 20 -21q0 -20 -20 -20h-213v-62h213q20 0 20 -20v-1700q0 -20 -20 -20h-213v-62h213q20 0 20 -20t-20 -21h-234q-20 0 -20 21v102z" />
<glyph unicode="_" horiz-adv-x="1515" d="M41 -256h1434v-51h-1434v51z" />
<glyph unicode="`" horiz-adv-x="700" d="M82 1112q0 10 9 17.5t18 7.5q8 0 16 -4l481 -332q12 -10 12 -23q0 -10 -9 -17t-19 -7t-12 6l-484 332q-12 8 -12 20z" />
<glyph unicode="a" horiz-adv-x="1464" d="M59 10l3 8q4 9 21 52t56 135t111 263t182.5 434t272.5 646q4 14 22 15q8 0 14.5 -5.5t10.5 -9.5l374 -889q2 -4 2 -10q0 -16 -14 -22l-772 -365q-4 -2 -10 -2q-27 0 -27 25q0 18 17 24l749 353l-344 808l-594 -1411l1012 488q2 0 4 1t4 1q10 0 15.5 -5t9.5 -9l213 -500 q2 -4 2 -10q0 -10 -9.5 -17.5t-19.5 -7.5q-16 0 -23 16l-198 471l-1047 -501q-4 -2 -10 -2q-16 0 -21.5 8t-5.5 18z" />
<glyph unicode="b" horiz-adv-x="1228" d="M82 25v1488q0 10 7 17.5t17 7.5h431q125 0 236.5 -47t195.5 -128t132 -191.5t48 -235.5q0 -127 -48 -232.5t-132 -182.5t-195.5 -120t-236.5 -43h-299q-10 0 -17.5 7.5t-7.5 17.5v1010q0 10 7 17t18 7q27 0 26 -24v-983h273q121 0 223 38.5t178 108.5t118 167t42 212 q0 117 -44 217t-120 175t-178.5 117t-218.5 42h-404v-1436h711q53 0 99 19.5t81 54.5t54.5 80t19.5 98q0 84 -51 152q-4 4 -5 14q0 27 27 27q18 0 32.5 -23.5t26 -54.5t16.5 -63.5t5 -51.5q0 -63 -23.5 -118.5t-65.5 -96.5t-97.5 -64.5t-118.5 -23.5h-738q-10 0 -17 7t-7 18 z" />
<glyph unicode="c" horiz-adv-x="1585" d="M82 766q0 170 58.5 316.5t157.5 254t229 169t276 61.5q113 0 221.5 -41t199.5 -114t159.5 -175t103.5 -225q2 -4 2 -11q0 -8 -6 -16t-17 -8q-20 0 -28 18q-35 117 -98.5 212.5t-146.5 164t-183.5 106.5t-206.5 38q-139 0 -261 -58.5t-212 -160t-143.5 -237.5t-53.5 -294 t53.5 -294t143.5 -236.5t212 -158t261 -57.5q98 0 191 32t173 90.5t143.5 141.5t104.5 185q6 16 23 16q27 0 26 -26q0 -2 -1 -4t-1 -4q-45 -109 -113.5 -198t-154.5 -152.5t-185.5 -97.5t-205.5 -34q-145 0 -276.5 61.5t-229.5 168t-156.5 252t-58.5 315.5z" />
<glyph unicode="d" horiz-adv-x="1388" d="M82 18v1491q0 10 7 18.5t17 8.5h510q143 0 269.5 -61.5t219.5 -166t146.5 -243.5t53.5 -295q0 -160 -55.5 -300t-149.5 -244.5t-219 -165t-265 -60.5h-383q-27 0 -26 27v1357q0 10 7 18.5t19 8.5q10 0 17.5 -8t7.5 -19v-1333h358q131 0 247 56.5t203 152.5t137 227 t50 283q0 150 -50 280t-137 227t-202.5 152.5t-247.5 55.5h-483v-1467q0 -24 -27 -24q-10 0 -17 7t-7 17z" />
<glyph unicode="e" horiz-adv-x="972" d="M82 530q0 2 4 15l565 991q6 10 21 10q27 0 26 -24q0 -8 -2 -13l-542 -952h704q10 0 17.5 -7t7.5 -18v-129q0 -25 -25 -24h-723v-328h723q25 0 25 -26q0 -10 -7.5 -17.5t-17.5 -7.5h-747q-12 0 -19.5 7t-7.5 18v378q0 27 27 27h720v76h-720q-10 0 -19.5 6t-9.5 18z" />
<glyph unicode="f" horiz-adv-x="952" d="M82 520q0 2 4 15l571 999q6 10 19 10q10 0 19.5 -7t9.5 -17q0 -4 -5 -13l-546 -960h704q10 0 17.5 -7.5t7.5 -17.5v-129q0 -25 -25 -24h-723v-355q0 -10 -7 -17t-17 -7q-12 0 -19.5 7t-7.5 17v379q0 27 27 27h720v76h-720q-10 0 -19.5 6t-9.5 18z" />
<glyph unicode="g" horiz-adv-x="1574" d="M82 770q0 166 57.5 311.5t156.5 253t231 170t280 62.5q117 0 225.5 -42t199.5 -118t158.5 -178.5t102.5 -222.5q0 -10 -4 -21.5t-19 -11.5q-20 0 -26 18q-35 117 -98.5 214.5t-146.5 166t-183.5 106.5t-208.5 38q-139 0 -262 -57.5t-214 -158t-144.5 -236.5t-53.5 -294 t53.5 -294t144.5 -237.5t214 -160t262 -58.5q100 0 196.5 36t177.5 100.5t145.5 153.5t103.5 196h-1076q-10 0 -17 7t-7 17q0 27 24 27h1112q6 0 15.5 -6t9.5 -19q0 -4 -1 -5t-1 -5q-37 -121 -106.5 -222t-159.5 -175t-196.5 -115t-219.5 -41q-150 0 -282 63.5t-230 172 t-155.5 255t-57.5 310.5z" />
<glyph unicode="h" horiz-adv-x="1148" d="M82 25v1495q0 10 7 18t17 8q27 0 27 -26v-1469h76v481q0 10 8 17.5t19 7.5h677q27 0 27 -25v-481h76v1469q0 26 24 26h2q25 0 25 -26v-1495q0 -10 -7.5 -17.5t-17.5 -7.5h-129q-10 0 -17 7t-7 18v481h-629v-481q0 -10 -7 -17.5t-17 -7.5h-130q-10 0 -17 7t-7 18z" />
<glyph unicode="i" horiz-adv-x="296" d="M123 14v1506q0 12 7 19t17 7q27 0 27 -26v-1506q0 -24 -27 -24q-10 0 -17 7t-7 17z" />
<glyph unicode="j" horiz-adv-x="966" d="M82 371v161q0 10 7 17.5t17 7.5h572q12 0 19.5 -7t7.5 -18q0 -27 -27 -26h-545v-135q0 -72 27.5 -136.5t75 -111.5t112 -75t135.5 -28q72 0 135.5 28t111.5 75t76 111.5t28 136.5v1151q0 10 7 17t19 7q10 0 17.5 -7t7.5 -17v-1151q0 -82 -32 -155t-86 -128t-127 -87 t-157 -32t-156.5 32t-127 87t-86 128t-31.5 155z" />
<glyph unicode="k" horiz-adv-x="993" d="M82 12v1510q0 10 7 17t17 7q27 0 27 -24v-1381l586 1381q4 16 22 16h133q29 0 29 -25q0 -4 -1 -5t-1 -5l-399 -973l393 -497q6 -6 6 -17q0 -10 -8 -17t-19 -7q-10 0 -16 10l-405 508q-6 6 -7 14q0 2 5 11l389 952h-80l-627 -1485q-8 -14 -24 -14q-12 0 -19.5 8t-7.5 16z " />
<glyph unicode="l" horiz-adv-x="958" d="M74 25q0 10 7 18t17 8h733v76h-725q-8 0 -16 8t-8 19v1368q0 10 7 17t20 7q10 0 17 -7t7 -17v-1344h725q10 0 17.5 -7t7.5 -17v-129q0 -10 -7.5 -17.5t-17.5 -7.5h-760q-10 0 -17 7t-7 18z" />
<glyph unicode="m" horiz-adv-x="1730" d="M82 20v1489q0 27 27 27h133q18 0 22 -16l602 -1438l598 1438q10 16 25 16h135q10 0 17.5 -7t7.5 -20v-1489q0 -10 -7.5 -17t-17.5 -7q-12 0 -19.5 7t-7.5 17v1465h-92l-616 -1479q-7 -16 -23 -16q-18 0 -22 16l-621 1479h-90v-1465q0 -10 -7 -17t-17 -7q-12 0 -19.5 7 t-7.5 17z" />
<glyph unicode="n" horiz-adv-x="1161" d="M82 20v1489q0 27 27 27h133q14 0 22 -12l764 -1409v1405q0 12 7 19t18 7q27 0 26 -26v-1504q1 -26 -26 -26q-14 0 -23 12l-805 1483h-92v-1465q0 -10 -7 -17t-17 -7q-12 0 -19.5 7t-7.5 17z" />
<glyph unicode="o" d="M82 768q0 168 57.5 314.5t155.5 254t229 169t277 61.5q147 0 277 -61.5t227.5 -169t155 -254t57.5 -314.5t-56.5 -313.5t-154 -253t-228.5 -170t-278 -62.5t-278.5 62.5t-228.5 170t-154.5 254t-57.5 312.5zM135 768q0 -158 52.5 -294t142.5 -237.5t211 -159t260 -57.5 q137 0 258 57.5t212 159t143 237.5t52 294t-52 294t-143 237.5t-212 159t-258 57.5q-139 0 -260 -57.5t-211 -159t-142.5 -237.5t-52.5 -294z" />
<glyph unicode="p" horiz-adv-x="1169" d="M82 14v1495q0 10 7 18.5t17 8.5h457q111 0 208 -41t170 -109.5t115 -160.5t42 -197q0 -111 -42 -206t-115 -165.5t-170 -110.5t-208 -40h-325q-25 0 -25 26v863q0 10 7 17t18 7q12 0 19 -7t7 -17v-838h299q100 0 188.5 36t154 99.5t103.5 149.5t38 186q0 92 -38 175 t-103.5 145.5t-153.5 99.5t-189 37h-430v-1471q0 -10 -8 -17t-19 -7q-10 0 -17 7t-7 17z" />
<glyph unicode="q" horiz-adv-x="1605" d="M82 768q0 168 56.5 314.5t153.5 254t227 169t280 61.5q147 0 278 -61.5t229.5 -169t155 -254t56.5 -314.5q0 -98 -20.5 -186t-61.5 -174q-37 -80 -89.5 -150t-115.5 -123l125 -301q2 -4 2 -12q0 -10 -7.5 -17.5t-17.5 -7.5q-18 0 -22 17l-330 784q-2 4 -2 10q0 10 7 18.5 t18 8.5q18 0 24 -17l182 -434q121 111 187.5 260.5t66.5 323.5q0 160 -52 296t-142 236.5t-212 158t-259 57.5t-258 -57.5t-212 -158t-143.5 -236.5t-52.5 -296q0 -158 52.5 -294t143.5 -236.5t212 -157.5t258 -57q139 0 258 59q2 0 4 1t6 1q10 0 19.5 -6t9.5 -19 q0 -23 -37 -39t-86 -27t-98.5 -17.5t-75.5 -6.5q-150 0 -280 62.5t-227 171t-153.5 254t-56.5 311.5z" />
<glyph unicode="r" horiz-adv-x="1175" d="M82 14v1497q0 25 24 25h457q111 0 208 -41t170 -111.5t115 -167t42 -204.5q0 -104 -38 -196.5t-102.5 -163t-153.5 -117t-190 -56.5l367 -438q4 -8 4 -14q0 -12 -8 -19.5t-16 -7.5h-195q-12 0 -18 10l-551 664q-6 6 -7 16q0 25 25 25q14 0 21 -10l542 -654h127l-362 436 q-6 6 -6 17q0 6 5 15t21 9q100 0 188.5 38t154 103.5t103.5 153.5t38 189q0 100 -38 186t-102.5 149.5t-153.5 100.5t-190 37h-430v-1471q0 -24 -27 -24q-25 0 -24 24z" />
<glyph unicode="s" horiz-adv-x="1562" d="M76 379q0 10 5 21.5t19 11.5q18 0 27 -19q25 -82 85 -150.5t146 -117.5t190.5 -77t217.5 -28q127 0 242.5 40t207 106.5t147.5 155t62 184.5h-1026q-29 10 -28 31q0 6 6 12l586 985q2 12 18 12q10 0 18.5 -7t8.5 -17t-2 -15l-564 -948h1012q10 -4 17.5 -12t7.5 -19 q0 -106 -56.5 -206.5t-154 -179.5t-226.5 -126t-276 -47q-121 0 -233.5 31t-204.5 85t-158 129t-94 165z" />
<glyph unicode="t" horiz-adv-x="1290" d="M82 1382v129q0 10 7 17.5t17 7.5h1082q24 0 24 -23q0 -12 -7 -20t-17 -8h-1055v-76h504q8 0 17.5 -7t9.5 -20v-1368q-4 -10 -10.5 -17t-16.5 -7q-25 0 -25 24v1344h-506q-10 0 -17 7t-7 17z" />
<glyph unicode="u" horiz-adv-x="1331" d="M82 502v1018q0 10 7 18t17 8t18.5 -8t8.5 -18v-1018q0 -100 36 -187.5t99.5 -153t146.5 -103.5t179 -38t180 38t147.5 103.5t99.5 152.5t36 188v1007q0 10 7 18.5t19 8.5h138q10 0 18 -8t8 -19v-1493q0 -12 -8 -19t-18 -7q-25 0 -25 26v1469h-88v-983q0 -111 -40 -208 t-109.5 -169t-164 -114t-200.5 -42t-199.5 42t-163 114t-109.5 169t-40 208z" />
<glyph unicode="v" horiz-adv-x="1142" d="M82 25v1486q0 25 24 25h138q25 0 24 -25v-1138q0 -10 -7 -17.5t-17 -7.5t-18.5 7t-8.5 18v1112h-84v-1434h94l820 1481q10 14 22 14q27 0 27 -26q0 -8 -2 -11l-830 -1497q-10 -12 -24 -12h-134q-25 0 -24 25z" />
<glyph unicode="w" horiz-adv-x="1843" d="M61 1518q0 10 4.5 20t20.5 10q18 0 25 -20l303 -1477h92l389 1485q8 18 27 18q18 0 22 -18l389 -1485h92l306 1477q4 20 22 20q14 0 21.5 -9t7.5 -21l-309 -1498q-7 -20 -25 -20h-135q-16 0 -25 18l-366 1412l-369 -1412q-4 -18 -27 -18h-133q-20 0 -24 20z" />
<glyph unicode="x" horiz-adv-x="1382" d="M41 1513q0 10 7 17.5t18 7.5q16 0 24 -10l485 -756q2 -4 3 -14q0 -10 -3 -13l-434 -694h86l914 1471q6 14 22 14h140q10 0 17 -8t7 -19q0 -10 -2 -12l-596 -977l307 -491q2 -4 4 -8.5t2 -8.5q0 -10 -8 -16t-18 -6q-18 0 -23 10l-315 504q-4 12 -4 16l4 12l577 953h-79 l-912 -1475q-10 -10 -20 -10h-150q-10 0 -19 7t-9 18q0 4 2 7t4 7l450 719l-477 741q-4 8 -4 14z" />
<glyph unicode="y" horiz-adv-x="1292" d="M53 1520q0 10 6.5 17t16.5 7q20 0 28 -18l347 -996v-8q0 -10 -5 -12l-292 -459h86l944 1481q10 14 24 14q10 0 16.5 -8t6.5 -18t-2 -13l-953 -1497q-8 -10 -24 -10h-146q-14 0 -21 7t-7 18q0 4 2 7t4 7l311 485l-340 987q-2 2 -2 9z" />
<glyph unicode="z" horiz-adv-x="1136" d="M66 23q0 8 4 16l919 1446h-899q-10 0 -17 7t-7 17q0 12 7 19.5t17 7.5h946q10 0 17.5 -8t7.5 -19q0 -8 -2 -12l-922 -1446h873v78h-656q-10 0 -17 7t-7 18q0 10 7 18t17 8h682q10 0 17.5 -8t7.5 -18v-127q0 -27 -25 -27h-946q-10 0 -17 5t-7 18z" />
<glyph unicode="{" horiz-adv-x="575" d="M102 530v127q0 27 27 27h55l101 836q0 16 11 45.5t34.5 59.5t56.5 52.5t76 22.5q12 0 19 -7t7 -18q0 -27 -26 -26q-41 0 -65.5 -20.5t-38 -45t-18.5 -46t-5 -24.5l-103 -858q-4 -23 -26 -22h-53v-74h53q23 0 26 -20l103 -512q0 -4 7 -25.5t22.5 -47.5t39 -46.5 t58.5 -20.5q27 0 26 -24q0 -10 -7 -18.5t-19 -8.5q-49 0 -83 26.5t-55.5 60.5t-30.5 61.5t-9 31.5l-99 488h-57q-10 0 -18.5 8t-8.5 18z" />
<glyph unicode="|" horiz-adv-x="215" d="M82 -88v1710q0 12 7 19.5t17 7.5q27 0 27 -27v-1710q0 -25 -27 -25q-10 0 -17 7.5t-7 17.5z" />
<glyph unicode="}" horiz-adv-x="589" d="M102 -137q0 24 27 24q35 0 58.5 20.5t39 46.5t22.5 47.5t7 25.5l102 512q4 20 27 20h53v74h-53q-23 0 -27 22l-102 858q0 2 -5 24t-18.5 46.5t-39 45t-64.5 20.5q-27 0 -27 26q0 10 7.5 17.5t19.5 7.5q43 0 76 -22.5t56.5 -52.5t34.5 -59.5t11 -45.5l101 -836h55 q27 0 26 -27v-127q0 -10 -8 -18t-18 -8h-57l-99 -488q0 -4 -9 -31.5t-30.5 -61.5t-55.5 -60.5t-83 -26.5q-12 0 -19.5 8.5t-7.5 18.5z" />
<glyph unicode="&#xa1;" horiz-adv-x="401" d="M82 1083q0 51 35 86t82 35q51 0 85.5 -34.5t34.5 -86.5q0 -47 -34.5 -81.5t-85.5 -34.5q-47 0 -82 34.5t-35 81.5zM131 1083q0 -29 19.5 -48t48.5 -19t50 19.5t21 47.5q0 31 -21.5 51.5t-49.5 20.5q-29 0 -48.5 -20.5t-19.5 -51.5zM176 -326v1221q0 25 23 25q27 0 26 -25 v-1221q0 -27 -26 -26q-23 0 -23 26z" />
<glyph unicode="&#xa2;" horiz-adv-x="1558" d="M82 766q0 162 55.5 305t149.5 252t220 173.5t267 70.5v209q0 10 7 17t18 7q12 0 19 -7t7 -17v-209q113 -4 217.5 -46t192.5 -116t153.5 -174t100.5 -219q0 -33 -27 -33q-18 0 -22 18q-35 113 -95.5 207t-141.5 162t-177 106.5t-201 43.5v-1498q96 4 185.5 38t166 92.5 t138 139.5t102.5 181q4 16 21 16q27 0 26 -26q0 -2 -1 -4t-1 -6q-43 -104 -108.5 -191.5t-148.5 -150t-179 -99.5t-201 -41v-289q0 -10 -7 -17t-19 -7q-10 0 -17.5 7t-7.5 17v289q-143 8 -269 72.5t-220.5 172t-148.5 250t-54 304.5zM133 766q0 -154 50 -287t137.5 -233.5 t204 -160.5t249.5 -67v1498q-133 -6 -249.5 -66.5t-204 -161t-137.5 -234.5t-50 -288z" />
<glyph unicode="&#xa3;" horiz-adv-x="966" d="M78 532q0 25 24 25h138l-144 608q0 80 29 153t86 132q111 117 278 117q82 0 155 -32t128 -86t87 -127t32 -157q0 -12 -7 -19t-18 -7q-27 0 -26 26q0 72 -28 135.5t-76 111.5t-111.5 76t-135.5 28t-134 -27t-108 -74t-73 -110.5t-29 -137.5l148 -610h557q27 0 27 -25 q0 -10 -7.5 -18t-19.5 -8h-545l82 -328h467q12 0 19.5 -7t7.5 -17v-129q0 -25 -27 -25h-748q-25 0 -24 25q0 27 24 26h723v76h-462q-23 0 -27 18l-88 361h-150q-10 0 -17 8t-7 18z" />
<glyph unicode="&#xa5;" horiz-adv-x="1292" d="M53 401q0 10 8.5 18.5t18.5 8.5h254l47 76h-301q-10 0 -18.5 7t-8.5 17t8.5 18.5t18.5 8.5h305l-330 956q-2 2 -2 9q0 10 6.5 17t16.5 7q20 0 28 -18l347 -996v-8q0 -10 -5 -12l-292 -459h86l944 1481q10 14 24 14q10 0 16.5 -8t6.5 -18t-2 -13l-606 -952h292 q12 0 19.5 -8t7.5 -19q0 -25 -27 -24h-325l-47 -76h372q12 0 19.5 -8t7.5 -19q0 -25 -27 -24h-405l-234 -367q-8 -10 -24 -10h-146q-14 0 -21 7t-7 18q0 4 2 7t4 7l217 338h-221q-10 0 -18.5 7t-8.5 17z" />
<glyph unicode="&#xa8;" horiz-adv-x="681" d="M82 1018q0 51 35 85t82 34q51 0 85.5 -34t34.5 -85q0 -49 -34.5 -85t-85.5 -36q-47 0 -82 36t-35 85zM129 1018q0 -29 20.5 -49.5t49.5 -20.5t50 20.5t21 49.5t-21 49t-50 20t-49.5 -20t-20.5 -49zM365 1018q0 51 34.5 85t81.5 34q51 0 86 -34t35 -85q0 -49 -35 -85 t-86 -36q-47 0 -81.5 36t-34.5 85zM414 1018q0 -29 19.5 -49.5t47.5 -20.5q29 0 50.5 20.5t21.5 49.5t-21.5 49t-50.5 20t-48 -20t-19 -49z" />
<glyph unicode="&#xa9;" horiz-adv-x="1742" d="M82 768q0 162 63.5 305.5t171 251t251 171t304.5 63.5q160 0 302.5 -61.5t251 -169t172 -252t63.5 -308.5t-62.5 -307.5t-170 -250t-251 -168.5t-305.5 -62q-164 0 -308 63t-251.5 171t-169 251t-61.5 303zM133 768q0 -154 58.5 -288t159 -233.5t234.5 -157.5t287 -58 q154 0 288 58t233.5 157.5t158 233.5t58.5 288t-58.5 288t-158 234.5t-233.5 158.5t-288 58t-287.5 -58t-234 -158.5t-159 -234.5t-58.5 -288zM442 780q0 104 36 197.5t98.5 163t145.5 110.5t177 41q74 0 141.5 -25.5t125 -71.5t99.5 -110.5t66 -142.5q0 -33 -28 -33 q-18 0 -23 17q-20 72 -57 130t-87.5 99t-110.5 63.5t-126 22.5q-84 0 -157.5 -36t-129 -99.5t-87 -147.5t-31.5 -178q0 -96 31.5 -180t87 -147.5t129 -99.5t157.5 -36q119 0 218.5 74t150.5 197q4 16 24 16q10 0 16.5 -7t6.5 -15t-2 -11q-27 -70 -70 -126t-97 -96 t-116.5 -61.5t-130.5 -21.5q-94 0 -177 40t-145.5 109.5t-98.5 164t-36 200.5z" />
<glyph unicode="&#xab;" horiz-adv-x="749" d="M76 459q0 10 4 16l332 467q6 12 20 12q25 0 25 -26q0 -10 -4 -15l-322 -452l322 -453q4 -6 4 -18q0 -23 -25 -23q-10 0 -20 10l-332 467q-4 4 -4 15zM276 459q0 10 5 16l333 467q6 12 21 12q12 0 18 -9t6 -19q0 -4 -4 -13l-323 -452l323 -453q4 -12 4 -16q0 -10 -7 -17.5 t-17 -7.5q-14 0 -21 10l-333 467q-4 4 -5 15z" />
<glyph unicode="&#xad;" horiz-adv-x="692" d="M82 530q0 10 8 18.5t19 8.5h475q12 0 19 -8.5t7 -18.5q0 -25 -26 -24h-475q-10 0 -18.5 7t-8.5 17z" />
<glyph unicode="&#xae;" horiz-adv-x="1740" d="M82 768q0 164 63.5 308.5t171 252t251 169t302.5 61.5q160 0 303.5 -62.5t251 -170t171 -252t63.5 -306.5t-62.5 -305.5t-169 -251t-251 -169.5t-306.5 -62q-164 0 -307 62t-249.5 168.5t-169 250t-62.5 307.5zM133 768q0 -154 58.5 -288t158 -233.5t233.5 -157.5 t287 -58q154 0 288 58t233.5 157.5t158 233.5t58.5 288t-58.5 288t-158 234.5t-233.5 158.5t-288 58t-287.5 -58t-233 -158.5t-158 -234.5t-58.5 -288zM588 274v975q0 10 8 17.5t18 7.5h297q74 0 138.5 -26.5t112.5 -74t77 -111t29 -138.5q0 -68 -23.5 -127.5t-64.5 -106.5 t-96.5 -77.5t-120.5 -39.5l227 -274q6 -6 6 -16t-8 -17.5t-19 -7.5h-125q-14 0 -20 8l-340 410q-6 6 -6 14q0 10 6 18.5t18 8.5t19 -10l336 -398h59l-225 269q-6 6 -6 14q0 12 8 19t18 7q63 0 118.5 25t96.5 66t66 97t25 118q0 63 -24 118.5t-65 95.5t-97 62.5t-120 22.5 h-272v-949q0 -26 -25 -26q-10 0 -18 7t-8 19z" />
<glyph unicode="&#xb0;" horiz-adv-x="538" d="M82 1362q0 78 54 132t132 54q39 0 74 -14t60.5 -40t40 -59.5t14.5 -72.5t-14.5 -74t-40 -60.5t-60.5 -39.5t-74 -14t-72.5 14t-59 39.5t-40 60.5t-14.5 74zM133 1362q0 -57 40 -97t95 -40q57 0 97.5 40t40.5 97q0 55 -40.5 95t-97.5 40q-55 0 -95 -40t-40 -95z" />
<glyph unicode="&#xb4;" horiz-adv-x="700" d="M82 778q0 12 12 23l481 332q8 4 17 4q8 0 17 -7.5t9 -17.5q0 -12 -12 -20l-483 -332q-4 -6 -12 -6q-10 0 -19.5 7t-9.5 17z" />
<glyph unicode="&#xb8;" horiz-adv-x="702" d="M82 -303q0 25 27 24q8 0 16 -17t31.5 -38.5t67.5 -39t124 -17.5q92 0 152.5 28.5t60.5 59.5q0 18 -17.5 34.5t-47 30t-68.5 21.5t-80 8q-10 0 -18 8t-8 19q0 8 6 14l123 174q6 10 22 10q12 0 18.5 -7t6.5 -17t-6 -17l-95 -135q92 -10 153.5 -50t61.5 -93 q0 -31 -21.5 -56.5t-57 -44t-84 -28.5t-101.5 -10t-101 10t-85 28.5t-58.5 44t-21.5 56.5z" />
<glyph unicode="&#xbb;" horiz-adv-x="737" d="M76 -8q0 4 4 16l323 453l-323 452q-4 8 -4 13q0 10 6 19t18 9q14 0 21 -12l334 -467q4 -6 4 -16t-4 -15l-334 -467q-7 -10 -21 -10q-10 0 -17 7.5t-7 17.5zM279 -10q0 12 4 18l321 453l-321 452q-4 4 -4 15q0 27 24 26q14 0 21 -12l331 -467q4 -6 4 -16t-4 -15l-331 -467 q-11 -10 -21 -10q-25 0 -24 23z" />
<glyph unicode="&#xbf;" horiz-adv-x="1163" d="M82 238q0 4 2 7t4 7l490 678q6 10 20 10q12 0 18.5 -7t6.5 -18q0 -4 -5 -12l-487 -674q2 -111 38 -208t97.5 -168.5t142 -113.5t173.5 -42q92 0 174 43t143.5 116.5t96 172t34.5 209.5q0 10 7 17t18 7q10 0 18 -7t8 -17q0 -121 -40 -228.5t-108.5 -187.5t-159.5 -127 t-191 -47q-104 0 -195.5 48t-159 129t-106.5 187.5t-39 225.5zM487 1104q0 51 34 86t83 35q51 0 86 -35t35 -86q0 -47 -35 -82t-86 -35q-49 0 -83 35t-34 82zM537 1104q0 -29 19 -48.5t48 -19.5t49.5 19.5t20.5 48.5q0 31 -20.5 51.5t-49.5 20.5t-48 -20.5t-19 -51.5z" />
<glyph unicode="&#xc0;" horiz-adv-x="1464" d="M59 10l3 8q4 9 21 52t56 135t111 263t182.5 434t272.5 646q4 14 22 15q8 0 14.5 -5.5t10.5 -9.5l374 -889q2 -4 2 -10q0 -16 -14 -22l-772 -365q-4 -2 -10 -2q-27 0 -27 25q0 18 17 24l749 353l-344 808l-594 -1411l1012 488q2 0 4 1t4 1q10 0 15.5 -5t9.5 -9l213 -500 q2 -4 2 -10q0 -10 -9.5 -17.5t-19.5 -7.5q-16 0 -23 16l-198 471l-1047 -501q-4 -2 -10 -2q-16 0 -21.5 8t-5.5 18zM463 1989q0 10 9 17.5t18 7.5q8 0 16 -4l481 -332q12 -10 12 -23q0 -10 -9 -17t-19 -7t-12 6l-484 332q-12 8 -12 20z" />
<glyph unicode="&#xc1;" horiz-adv-x="1464" d="M59 10l3 8q4 9 21 52t56 135t111 263t182.5 434t272.5 646q4 14 22 15q8 0 14.5 -5.5t10.5 -9.5l374 -889q2 -4 2 -10q0 -16 -14 -22l-772 -365q-4 -2 -10 -2q-27 0 -27 25q0 18 17 24l749 353l-344 808l-594 -1411l1012 488q2 0 4 1t4 1q10 0 15.5 -5t9.5 -9l213 -500 q2 -4 2 -10q0 -10 -9.5 -17.5t-19.5 -7.5q-16 0 -23 16l-198 471l-1047 -501q-4 -2 -10 -2q-16 0 -21.5 8t-5.5 18zM463 1655q0 12 12 23l481 332q8 4 17 4q8 0 17 -7.5t9 -17.5q0 -12 -12 -20l-483 -332q-4 -6 -12 -6q-10 0 -19.5 7t-9.5 17z" />
<glyph unicode="&#xc2;" horiz-adv-x="1464" d="M59 10l3 8q4 9 21 52t56 135t111 263t182.5 434t272.5 646q4 14 22 15q8 0 14.5 -5.5t10.5 -9.5l374 -889q2 -4 2 -10q0 -16 -14 -22l-772 -365q-4 -2 -10 -2q-27 0 -27 25q0 18 17 24l749 353l-344 808l-594 -1411l1012 488q2 0 4 1t4 1q10 0 15.5 -5t9.5 -9l213 -500 q2 -4 2 -10q0 -10 -9.5 -17.5t-19.5 -7.5q-16 0 -23 16l-198 471l-1047 -501q-4 -2 -10 -2q-16 0 -21.5 8t-5.5 18zM377 1655q0 10 8 19l328 331q8 8 20 9q10 0 19 -9l327 -331q8 -12 9 -19q0 -27 -27 -26q-12 0 -18 8l-310 315l-311 -315q-4 -4 -8 -6t-10 -2q-10 0 -18.5 8 t-8.5 18z" />
<glyph unicode="&#xc3;" horiz-adv-x="1464" d="M59 10l3 8q4 9 21 52t56 135t111 263t182.5 434t272.5 646q4 14 22 15q8 0 14.5 -5.5t10.5 -9.5l374 -889q2 -4 2 -10q0 -16 -14 -22l-772 -365q-4 -2 -10 -2q-27 0 -27 25q0 18 17 24l749 353l-344 808l-594 -1411l1012 488q2 0 4 1t4 1q10 0 15.5 -5t9.5 -9l213 -500 q2 -4 2 -10q0 -10 -9.5 -17.5t-19.5 -7.5q-16 0 -23 16l-198 471l-1047 -501q-4 -2 -10 -2q-16 0 -21.5 8t-5.5 18zM401 1874q0 59 56.5 99.5t131.5 40.5q4 0 8.5 -2t8.5 -5l278 -223q53 4 90 30t37 60q0 35 -40 61.5t-95 26.5q-10 0 -17.5 7.5t-7.5 17.5q0 12 7.5 19.5 t17.5 7.5q37 0 69.5 -10.5t59.5 -29t42 -44t15 -56.5q0 -61 -56 -101t-130 -40q-4 0 -7 2t-7 4l-283 223q-53 -4 -90 -28.5t-37 -59.5q0 -31 25.5 -48t56.5 -27.5t56.5 -18.5t25.5 -20q0 -10 -8 -18.5t-19 -8.5q-37 0 -71.5 11.5t-60 29.5t-41 44t-15.5 56z" />
<glyph unicode="&#xc4;" horiz-adv-x="1464" d="M59 10l3 8q4 9 21 52t56 135t111 263t182.5 434t272.5 646q4 14 22 15q8 0 14.5 -5.5t10.5 -9.5l374 -889q2 -4 2 -10q0 -16 -14 -22l-772 -365q-4 -2 -10 -2q-27 0 -27 25q0 18 17 24l749 353l-344 808l-594 -1411l1012 488q2 0 4 1t4 1q10 0 15.5 -5t9.5 -9l213 -500 q2 -4 2 -10q0 -10 -9.5 -17.5t-19.5 -7.5q-16 0 -23 16l-198 471l-1047 -501q-4 -2 -10 -2q-16 0 -21.5 8t-5.5 18zM471 1895q0 51 35 85t82 34q51 0 85.5 -34t34.5 -85q0 -49 -34.5 -85t-85.5 -36q-47 0 -82 36t-35 85zM518 1895q0 -29 20.5 -49.5t49.5 -20.5t50 20.5 t21 49.5t-21 49t-50 20t-49.5 -20t-20.5 -49zM754 1895q0 51 34.5 85t81.5 34q51 0 86 -34t35 -85q0 -49 -35 -85t-86 -36q-47 0 -81.5 36t-34.5 85zM803 1895q0 -29 19.5 -49.5t47.5 -20.5q29 0 50.5 20.5t21.5 49.5t-21.5 49t-50.5 20t-48 -20t-19 -49z" />
<glyph unicode="&#xc5;" horiz-adv-x="1464" d="M59 10l3 8q4 9 21 52t56 135t111 263t182.5 434t272.5 646q4 14 22 15q8 0 14.5 -5.5t10.5 -9.5l374 -889q2 -4 2 -10q0 -16 -14 -22l-772 -365q-4 -2 -10 -2q-27 0 -27 25q0 18 17 24l749 353l-344 808l-594 -1411l1012 488q2 0 4 1t4 1q10 0 15.5 -5t9.5 -9l213 -500 q2 -4 2 -10q0 -10 -9.5 -17.5t-19.5 -7.5q-16 0 -23 16l-198 471l-1047 -501q-4 -2 -10 -2q-16 0 -21.5 8t-5.5 18zM545 1827q0 78 54 132.5t132 54.5q39 0 74 -14.5t60.5 -40t40 -59.5t14.5 -73t-14.5 -73.5t-40 -60t-60.5 -40t-74 -14.5t-72.5 14.5t-59 40t-40 60 t-14.5 73.5zM596 1827q0 -57 40 -97t95 -40q57 0 97.5 40t40.5 97q0 55 -40.5 95t-97.5 40q-55 0 -95 -39.5t-40 -95.5z" />
<glyph unicode="&#xc6;" horiz-adv-x="2220" d="M59 10l3 8q4 9 21 52t56 135t111 263t182.5 434t272.5 646q4 14 22 15q8 0 14.5 -5.5t10.5 -9.5l374 -889q2 -4 2 -10q0 -16 -14 -22l-772 -365q-4 -2 -10 -2q-27 0 -27 25q0 18 17 24l749 353l-344 808l-594 -1411l1012 488q2 0 4 1t4 1q10 0 15.5 -5t9.5 -9l163 -385 v253q0 27 27 27h721v76h-721q-10 0 -19.5 6t-9.5 18q0 2 4 15l566 991q6 10 20 10q27 0 27 -24q0 -8 -2 -13l-543 -952h705q10 0 17 -7t7 -18v-129q0 -25 -24 -24h-723v-328h723q25 0 24 -26q0 -10 -7 -17.5t-17 -7.5h-748q-20 0 -27 16l-198 471l-1047 -501q-4 -2 -10 -2 q-16 0 -21.5 8t-5.5 18z" />
<glyph unicode="&#xc7;" horiz-adv-x="1585" d="M82 766q0 170 58.5 316.5t157.5 254t229 169t276 61.5q113 0 221.5 -41t199.5 -114t159.5 -175t103.5 -225q2 -4 2 -11q0 -8 -6 -16t-17 -8q-20 0 -28 18q-35 117 -98.5 212.5t-146.5 164t-183.5 106.5t-206.5 38q-139 0 -261 -58.5t-212 -160t-143.5 -237.5t-53.5 -294 t53.5 -294t143.5 -236.5t212 -158t261 -57.5q98 0 191 32t173 90.5t143.5 141.5t104.5 185q6 16 23 16q27 0 26 -26q0 -2 -1 -4t-1 -4q-45 -109 -113.5 -198t-154.5 -152.5t-185.5 -97.5t-205.5 -34q-145 0 -276.5 61.5t-229.5 168t-156.5 252t-58.5 315.5zM526 -303 q0 25 27 24q8 0 16 -17t31.5 -38.5t67.5 -39t124 -17.5q92 0 152.5 28.5t60.5 59.5q0 18 -17.5 34.5t-47 30t-68.5 21.5t-80 8q-10 0 -18 8t-8 19q0 8 6 14l123 174q6 10 22 10q12 0 18.5 -7t6.5 -17t-6 -17l-95 -135q92 -10 153.5 -50t61.5 -93q0 -31 -21.5 -56.5t-57 -44 t-84 -28.5t-101.5 -10t-101 10t-85 28.5t-58.5 44t-21.5 56.5z" />
<glyph unicode="&#xc8;" horiz-adv-x="972" d="M82 530q0 2 4 15l565 991q6 10 21 10q27 0 26 -24q0 -8 -2 -13l-542 -952h704q10 0 17.5 -7t7.5 -18v-129q0 -25 -25 -24h-723v-328h723q25 0 25 -26q0 -10 -7.5 -17.5t-17.5 -7.5h-747q-12 0 -19.5 7t-7.5 18v378q0 27 27 27h720v76h-720q-10 0 -19.5 6t-9.5 18z M217 1989q0 10 9 17.5t18 7.5q8 0 16 -4l481 -332q12 -10 12 -23q0 -10 -9 -17t-19 -7t-12 6l-484 332q-12 8 -12 20z" />
<glyph unicode="&#xc9;" horiz-adv-x="972" d="M82 530q0 2 4 15l565 991q6 10 21 10q27 0 26 -24q0 -8 -2 -13l-542 -952h704q10 0 17.5 -7t7.5 -18v-129q0 -25 -25 -24h-723v-328h723q25 0 25 -26q0 -10 -7.5 -17.5t-17.5 -7.5h-747q-12 0 -19.5 7t-7.5 18v378q0 27 27 27h720v76h-720q-10 0 -19.5 6t-9.5 18z M217 1655q0 12 12 23l481 332q8 4 17 4q8 0 17 -7.5t9 -17.5q0 -12 -12 -20l-483 -332q-4 -6 -12 -6q-10 0 -19.5 7t-9.5 17z" />
<glyph unicode="&#xca;" horiz-adv-x="972" d="M82 530q0 2 4 15l565 991q6 10 21 10q27 0 26 -24q0 -8 -2 -13l-542 -952h704q10 0 17.5 -7t7.5 -18v-129q0 -25 -25 -24h-723v-328h723q25 0 25 -26q0 -10 -7.5 -17.5t-17.5 -7.5h-747q-12 0 -19.5 7t-7.5 18v378q0 27 27 27h720v76h-720q-10 0 -19.5 6t-9.5 18z M131 1655q0 10 8 19l328 331q8 8 20 9q10 0 19 -9l327 -331q8 -12 9 -19q0 -27 -27 -26q-12 0 -18 8l-310 315l-311 -315q-4 -4 -8 -6t-10 -2q-10 0 -18.5 8t-8.5 18z" />
<glyph unicode="&#xcb;" horiz-adv-x="972" d="M82 530q0 2 4 15l565 991q6 10 21 10q27 0 26 -24q0 -8 -2 -13l-542 -952h704q10 0 17.5 -7t7.5 -18v-129q0 -25 -25 -24h-723v-328h723q25 0 25 -26q0 -10 -7.5 -17.5t-17.5 -7.5h-747q-12 0 -19.5 7t-7.5 18v378q0 27 27 27h720v76h-720q-10 0 -19.5 6t-9.5 18z M225 1895q0 51 35 85t82 34q51 0 85.5 -34t34.5 -85q0 -49 -34.5 -85t-85.5 -36q-47 0 -82 36t-35 85zM272 1895q0 -29 20.5 -49.5t49.5 -20.5t50 20.5t21 49.5t-21 49t-50 20t-49.5 -20t-20.5 -49zM508 1895q0 51 34.5 85t81.5 34q51 0 86 -34t35 -85q0 -49 -35 -85 t-86 -36q-47 0 -81.5 36t-34.5 85zM557 1895q0 -29 19.5 -49.5t47.5 -20.5q29 0 50.5 20.5t21.5 49.5t-21.5 49t-50.5 20t-48 -20t-19 -49z" />
<glyph unicode="&#xcc;" horiz-adv-x="296" d="M-119 1989q0 10 9 17.5t18 7.5q8 0 16 -4l481 -332q12 -10 12 -23q0 -10 -9 -17t-19 -7t-12 6l-484 332q-12 8 -12 20zM123 14v1506q0 12 7 19t17 7q27 0 27 -26v-1506q0 -24 -27 -24q-10 0 -17 7t-7 17z" />
<glyph unicode="&#xcd;" horiz-adv-x="296" d="M-119 1655q0 12 12 23l481 332q8 4 17 4q8 0 17 -7.5t9 -17.5q0 -12 -12 -20l-483 -332q-4 -6 -12 -6q-10 0 -19.5 7t-9.5 17zM123 14v1506q0 12 7 19t17 7q27 0 27 -26v-1506q0 -24 -27 -24q-10 0 -17 7t-7 17z" />
<glyph unicode="&#xce;" horiz-adv-x="296" d="M-207 1655q0 10 8 19l328 331q8 8 20 9q10 0 19 -9l327 -331q8 -12 9 -19q0 -27 -27 -26q-12 0 -18 8l-310 315l-311 -315q-4 -4 -8 -6t-10 -2q-10 0 -18.5 8t-8.5 18zM123 14v1506q0 12 7 19t17 7q27 0 27 -26v-1506q0 -24 -27 -24q-10 0 -17 7t-7 17z" />
<glyph unicode="&#xcf;" horiz-adv-x="296" d="M-111 1895q0 51 35 85t82 34q51 0 85.5 -34t34.5 -85q0 -49 -34.5 -85t-85.5 -36q-47 0 -82 36t-35 85zM-64 1895q0 -29 20.5 -49.5t49.5 -20.5t50 20.5t21 49.5t-21 49t-50 20t-49.5 -20t-20.5 -49zM123 14v1506q0 12 7 19t17 7q27 0 27 -26v-1506q0 -24 -27 -24 q-10 0 -17 7t-7 17zM172 1895q0 51 34.5 85t81.5 34q51 0 86 -34t35 -85q0 -49 -35 -85t-86 -36q-47 0 -81.5 36t-34.5 85zM221 1895q0 -29 19.5 -49.5t47.5 -20.5q29 0 50.5 20.5t21.5 49.5t-21.5 49t-50.5 20t-48 -20t-19 -49z" />
<glyph unicode="&#xd0;" horiz-adv-x="1509" d="M55 528q0 10 8.5 18.5t18.5 8.5h133v954q0 10 7 18.5t18 8.5h510q143 0 269 -61.5t219 -166t146.5 -243.5t53.5 -295q0 -160 -55.5 -300t-149.5 -244.5t-219 -165t-264 -60.5h-383q-27 0 -27 27v1357q0 10 7 18.5t20 8.5q10 0 17 -8t7 -19v-829h166q12 0 19.5 -8t7.5 -19 q0 -25 -27 -24h-166v-453h359q131 0 246.5 56.5t202.5 152.5t137 227t50 283q0 150 -50 280t-137 227t-202.5 152.5t-246.5 55.5h-484v-1467q1 -24 -26 -24q-10 0 -17.5 7t-7.5 17v486h-133q-10 0 -18.5 7t-8.5 17z" />
<glyph unicode="&#xd1;" horiz-adv-x="1292" d="M82 20v1489q0 27 27 27h133q14 0 22 -12l764 -1409v1405q0 12 7 19t18 7q27 0 26 -26v-1504q1 -26 -26 -26q-14 0 -23 12l-805 1483h-92v-1465q0 -10 -7 -17t-17 -7q-12 0 -19.5 7t-7.5 17zM315 1874q0 59 56.5 99.5t131.5 40.5q4 0 8.5 -2t8.5 -5l278 -223q53 4 90 30 t37 60q0 35 -40 61.5t-95 26.5q-10 0 -17.5 7.5t-7.5 17.5q0 12 7.5 19.5t17.5 7.5q37 0 69.5 -10.5t59.5 -29t42 -44t15 -56.5q0 -61 -56 -101t-130 -40q-4 0 -7 2t-7 4l-283 223q-53 -4 -90 -28.5t-37 -59.5q0 -31 25.5 -48t56.5 -27.5t56.5 -18.5t25.5 -20 q0 -10 -8 -18.5t-19 -8.5q-37 0 -71.5 11.5t-60 29.5t-41 44t-15.5 56z" />
<glyph unicode="&#xd2;" d="M82 768q0 168 57.5 314.5t155.5 254t229 169t277 61.5q147 0 277 -61.5t227.5 -169t155 -254t57.5 -314.5t-56.5 -313.5t-154 -253t-228.5 -170t-278 -62.5t-278.5 62.5t-228.5 170t-154.5 254t-57.5 312.5zM135 768q0 -158 52.5 -294t142.5 -237.5t211 -159t260 -57.5 q137 0 258 57.5t212 159t143 237.5t52 294t-52 294t-143 237.5t-212 159t-258 57.5q-139 0 -260 -57.5t-211 -159t-142.5 -237.5t-52.5 -294zM531 1989q0 10 9 17.5t18 7.5q8 0 16 -4l481 -332q12 -10 12 -23q0 -10 -9 -17t-19 -7t-12 6l-484 332q-12 8 -12 20z" />
<glyph unicode="&#xd3;" d="M82 768q0 168 57.5 314.5t155.5 254t229 169t277 61.5q147 0 277 -61.5t227.5 -169t155 -254t57.5 -314.5t-56.5 -313.5t-154 -253t-228.5 -170t-278 -62.5t-278.5 62.5t-228.5 170t-154.5 254t-57.5 312.5zM135 768q0 -158 52.5 -294t142.5 -237.5t211 -159t260 -57.5 q137 0 258 57.5t212 159t143 237.5t52 294t-52 294t-143 237.5t-212 159t-258 57.5q-139 0 -260 -57.5t-211 -159t-142.5 -237.5t-52.5 -294zM531 1655q0 12 12 23l481 332q8 4 17 4q8 0 17 -7.5t9 -17.5q0 -12 -12 -20l-483 -332q-4 -6 -12 -6q-10 0 -19.5 7t-9.5 17z" />
<glyph unicode="&#xd4;" d="M82 768q0 168 57.5 314.5t155.5 254t229 169t277 61.5q147 0 277 -61.5t227.5 -169t155 -254t57.5 -314.5t-56.5 -313.5t-154 -253t-228.5 -170t-278 -62.5t-278.5 62.5t-228.5 170t-154.5 254t-57.5 312.5zM135 768q0 -158 52.5 -294t142.5 -237.5t211 -159t260 -57.5 q137 0 258 57.5t212 159t143 237.5t52 294t-52 294t-143 237.5t-212 159t-258 57.5q-139 0 -260 -57.5t-211 -159t-142.5 -237.5t-52.5 -294zM444 1655q0 10 8 19l328 331q8 8 20 9q10 0 19 -9l327 -331q8 -12 9 -19q0 -27 -27 -26q-12 0 -18 8l-310 315l-311 -315 q-4 -4 -8 -6t-10 -2q-10 0 -18.5 8t-8.5 18z" />
<glyph unicode="&#xd5;" d="M82 768q0 168 57.5 314.5t155.5 254t229 169t277 61.5q147 0 277 -61.5t227.5 -169t155 -254t57.5 -314.5t-56.5 -313.5t-154 -253t-228.5 -170t-278 -62.5t-278.5 62.5t-228.5 170t-154.5 254t-57.5 312.5zM135 768q0 -158 52.5 -294t142.5 -237.5t211 -159t260 -57.5 q137 0 258 57.5t212 159t143 237.5t52 294t-52 294t-143 237.5t-212 159t-258 57.5q-139 0 -260 -57.5t-211 -159t-142.5 -237.5t-52.5 -294zM469 1874q0 59 56.5 99.5t131.5 40.5q4 0 8.5 -2t8.5 -5l278 -223q53 4 90 30t37 60q0 35 -40 61.5t-95 26.5q-10 0 -17.5 7.5 t-7.5 17.5q0 12 7.5 19.5t17.5 7.5q37 0 69.5 -10.5t59.5 -29t42 -44t15 -56.5q0 -61 -56 -101t-130 -40q-4 0 -7 2t-7 4l-283 223q-53 -4 -90 -28.5t-37 -59.5q0 -31 25.5 -48t56.5 -27.5t56.5 -18.5t25.5 -20q0 -10 -8 -18.5t-19 -8.5q-37 0 -71.5 11.5t-60 29.5t-41 44 t-15.5 56z" />
<glyph unicode="&#xd6;" d="M82 768q0 168 57.5 314.5t155.5 254t229 169t277 61.5q147 0 277 -61.5t227.5 -169t155 -254t57.5 -314.5t-56.5 -313.5t-154 -253t-228.5 -170t-278 -62.5t-278.5 62.5t-228.5 170t-154.5 254t-57.5 312.5zM135 768q0 -158 52.5 -294t142.5 -237.5t211 -159t260 -57.5 q137 0 258 57.5t212 159t143 237.5t52 294t-52 294t-143 237.5t-212 159t-258 57.5q-139 0 -260 -57.5t-211 -159t-142.5 -237.5t-52.5 -294zM539 1895q0 51 35 85t82 34q51 0 85.5 -34t34.5 -85q0 -49 -34.5 -85t-85.5 -36q-47 0 -82 36t-35 85zM586 1895q0 -29 20.5 -49.5 t49.5 -20.5t50 20.5t21 49.5t-21 49t-50 20t-49.5 -20t-20.5 -49zM822 1895q0 51 34.5 85t81.5 34q51 0 86 -34t35 -85q0 -49 -35 -85t-86 -36q-47 0 -81.5 36t-34.5 85zM871 1895q0 -29 19.5 -49.5t47.5 -20.5q29 0 50.5 20.5t21.5 49.5t-21.5 49t-50.5 20t-48 -20t-19 -49 z" />
<glyph unicode="&#xd8;" d="M82 768q0 168 57.5 314.5t155.5 254t229 169t277 61.5q109 0 207 -34t184 -95l63 98q6 10 19 10q10 0 19.5 -7t9.5 -17q0 -6 -5 -15l-65 -102q129 -111 207 -274.5t78 -362.5q0 -168 -56.5 -313.5t-154 -253t-228.5 -170t-278 -62.5q-111 0 -210 34t-185 97l-60 -96 q-10 -12 -22 -12q-10 0 -18.5 7t-8.5 17q0 6 6 17l64 100q-129 111 -207 273.5t-78 361.5zM135 768q0 -186 69.5 -339t188.5 -255l772 1221q-78 57 -171 89t-193 32q-139 0 -260 -57.5t-211 -159t-142.5 -237.5t-52.5 -294zM432 141q80 -59 172.5 -90t196.5 -31 q137 0 258 57.5t212 159t143 237.5t52 294q0 184 -70.5 338t-189.5 256z" />
<glyph unicode="&#xd9;" horiz-adv-x="1331" d="M82 502v1018q0 10 7 18t17 8t18.5 -8t8.5 -18v-1018q0 -100 36 -187.5t99.5 -153t146.5 -103.5t179 -38t180 38t147.5 103.5t99.5 152.5t36 188v1007q0 10 7 18.5t19 8.5h138q10 0 18 -8t8 -19v-1493q0 -12 -8 -19t-18 -7q-25 0 -25 26v1469h-88v-983q0 -111 -40 -208 t-109.5 -169t-164 -114t-200.5 -42t-199.5 42t-163 114t-109.5 169t-40 208zM397 1989q0 10 9 17.5t18 7.5q8 0 16 -4l481 -332q12 -10 12 -23q0 -10 -9 -17t-19 -7t-12 6l-484 332q-12 8 -12 20z" />
<glyph unicode="&#xda;" horiz-adv-x="1331" d="M82 502v1018q0 10 7 18t17 8t18.5 -8t8.5 -18v-1018q0 -100 36 -187.5t99.5 -153t146.5 -103.5t179 -38t180 38t147.5 103.5t99.5 152.5t36 188v1007q0 10 7 18.5t19 8.5h138q10 0 18 -8t8 -19v-1493q0 -12 -8 -19t-18 -7q-25 0 -25 26v1469h-88v-983q0 -111 -40 -208 t-109.5 -169t-164 -114t-200.5 -42t-199.5 42t-163 114t-109.5 169t-40 208zM397 1655q0 12 12 23l481 332q8 4 17 4q8 0 17 -7.5t9 -17.5q0 -12 -12 -20l-483 -332q-4 -6 -12 -6q-10 0 -19.5 7t-9.5 17z" />
<glyph unicode="&#xdb;" horiz-adv-x="1331" d="M82 502v1018q0 10 7 18t17 8t18.5 -8t8.5 -18v-1018q0 -100 36 -187.5t99.5 -153t146.5 -103.5t179 -38t180 38t147.5 103.5t99.5 152.5t36 188v1007q0 10 7 18.5t19 8.5h138q10 0 18 -8t8 -19v-1493q0 -12 -8 -19t-18 -7q-25 0 -25 26v1469h-88v-983q0 -111 -40 -208 t-109.5 -169t-164 -114t-200.5 -42t-199.5 42t-163 114t-109.5 169t-40 208zM309 1655q0 10 8 19l328 331q8 8 20 9q10 0 19 -9l327 -331q8 -12 9 -19q0 -27 -27 -26q-12 0 -18 8l-310 315l-311 -315q-4 -4 -8 -6t-10 -2q-10 0 -18.5 8t-8.5 18z" />
<glyph unicode="&#xdc;" horiz-adv-x="1331" d="M82 502v1018q0 10 7 18t17 8t18.5 -8t8.5 -18v-1018q0 -100 36 -187.5t99.5 -153t146.5 -103.5t179 -38t180 38t147.5 103.5t99.5 152.5t36 188v1007q0 10 7 18.5t19 8.5h138q10 0 18 -8t8 -19v-1493q0 -12 -8 -19t-18 -7q-25 0 -25 26v1469h-88v-983q0 -111 -40 -208 t-109.5 -169t-164 -114t-200.5 -42t-199.5 42t-163 114t-109.5 169t-40 208zM406 1895q0 51 35 85t82 34q51 0 85.5 -34t34.5 -85q0 -49 -34.5 -85t-85.5 -36q-47 0 -82 36t-35 85zM453 1895q0 -29 20.5 -49.5t49.5 -20.5t50 20.5t21 49.5t-21 49t-50 20t-49.5 -20 t-20.5 -49zM689 1895q0 51 34.5 85t81.5 34q51 0 86 -34t35 -85q0 -49 -35 -85t-86 -36q-47 0 -81.5 36t-34.5 85zM738 1895q0 -29 19.5 -49.5t47.5 -20.5q29 0 50.5 20.5t21.5 49.5t-21.5 49t-50.5 20t-48 -20t-19 -49z" />
<glyph unicode="&#xdd;" horiz-adv-x="1292" d="M53 1520q0 10 6.5 17t16.5 7q20 0 28 -18l347 -996v-8q0 -10 -5 -12l-292 -459h86l944 1481q10 14 24 14q10 0 16.5 -8t6.5 -18t-2 -13l-953 -1497q-8 -10 -24 -10h-146q-14 0 -21 7t-7 18q0 4 2 7t4 7l311 485l-340 987q-2 2 -2 9zM377 1655q0 12 12 23l481 332 q8 4 17 4q8 0 17 -7.5t9 -17.5q0 -12 -12 -20l-483 -332q-4 -6 -12 -6q-10 0 -19.5 7t-9.5 17z" />
<glyph unicode="&#xde;" horiz-adv-x="942" d="M82 27v1493q0 27 24 26q27 0 27 -26v-1469h76v983q0 10 7 18.5t17 8.5h283q70 0 132.5 -28.5t108.5 -76t72.5 -110t26.5 -131.5q0 -70 -26.5 -131.5t-72.5 -107.5t-108.5 -72.5t-132.5 -26.5h-190q-25 0 -25 24q0 27 25 27h190q59 0 111.5 22.5t92.5 61.5t62.5 91 t22.5 112q0 61 -22.5 114.5t-62.5 93.5t-92.5 63.5t-111.5 23.5h-256v-983q0 -12 -7 -19.5t-17 -7.5h-130q-25 0 -24 27z" />
<glyph unicode="&#xdf;" horiz-adv-x="1222" d="M76 27q0 2 1 3t1 3l430 1501q4 20 22 20q123 0 235 -48t195.5 -131t134 -194.5t50.5 -240.5q0 -117 -40 -218t-116 -181q31 -12 58.5 -39t49 -60.5t35 -69.5t13.5 -67q0 -63 -23.5 -118.5t-65.5 -97.5t-97.5 -65.5t-116.5 -23.5h-602q-12 0 -19.5 9t-7.5 14q0 6 4 10 l148 495q4 18 22 19q16 0 21.5 -11.5t5.5 -23.5l-140 -461h568q51 0 97 19.5t80 54.5t54.5 81t20.5 99q0 12 -8.5 44t-27 66t-48 59.5t-72.5 25.5q-12 0 -19.5 8t-7.5 14q0 14 9 23q86 74 130 176t44 219q0 115 -42 215t-116 176t-173 121t-212 49l-424 -1483 q-5 -18 -23 -18q-10 0 -19 7t-9 20z" />
<glyph unicode="&#xe0;" horiz-adv-x="1464" d="M59 10l3 8q4 9 21 52t56 135t111 263t182.5 434t272.5 646q4 14 22 15q8 0 14.5 -5.5t10.5 -9.5l374 -889q2 -4 2 -10q0 -16 -14 -22l-772 -365q-4 -2 -10 -2q-27 0 -27 25q0 18 17 24l749 353l-344 808l-594 -1411l1012 488q2 0 4 1t4 1q10 0 15.5 -5t9.5 -9l213 -500 q2 -4 2 -10q0 -10 -9.5 -17.5t-19.5 -7.5q-16 0 -23 16l-198 471l-1047 -501q-4 -2 -10 -2q-16 0 -21.5 8t-5.5 18zM463 1989q0 10 9 17.5t18 7.5q8 0 16 -4l481 -332q12 -10 12 -23q0 -10 -9 -17t-19 -7t-12 6l-484 332q-12 8 -12 20z" />
<glyph unicode="&#xe1;" horiz-adv-x="1464" d="M59 10l3 8q4 9 21 52t56 135t111 263t182.5 434t272.5 646q4 14 22 15q8 0 14.5 -5.5t10.5 -9.5l374 -889q2 -4 2 -10q0 -16 -14 -22l-772 -365q-4 -2 -10 -2q-27 0 -27 25q0 18 17 24l749 353l-344 808l-594 -1411l1012 488q2 0 4 1t4 1q10 0 15.5 -5t9.5 -9l213 -500 q2 -4 2 -10q0 -10 -9.5 -17.5t-19.5 -7.5q-16 0 -23 16l-198 471l-1047 -501q-4 -2 -10 -2q-16 0 -21.5 8t-5.5 18zM463 1655q0 12 12 23l481 332q8 4 17 4q8 0 17 -7.5t9 -17.5q0 -12 -12 -20l-483 -332q-4 -6 -12 -6q-10 0 -19.5 7t-9.5 17z" />
<glyph unicode="&#xe2;" horiz-adv-x="1464" d="M59 10l3 8q4 9 21 52t56 135t111 263t182.5 434t272.5 646q4 14 22 15q8 0 14.5 -5.5t10.5 -9.5l374 -889q2 -4 2 -10q0 -16 -14 -22l-772 -365q-4 -2 -10 -2q-27 0 -27 25q0 18 17 24l749 353l-344 808l-594 -1411l1012 488q2 0 4 1t4 1q10 0 15.5 -5t9.5 -9l213 -500 q2 -4 2 -10q0 -10 -9.5 -17.5t-19.5 -7.5q-16 0 -23 16l-198 471l-1047 -501q-4 -2 -10 -2q-16 0 -21.5 8t-5.5 18zM377 1655q0 10 8 19l328 331q8 8 20 9q10 0 19 -9l327 -331q8 -12 9 -19q0 -27 -27 -26q-12 0 -18 8l-310 315l-311 -315q-4 -4 -8 -6t-10 -2q-10 0 -18.5 8 t-8.5 18z" />
<glyph unicode="&#xe3;" horiz-adv-x="1464" d="M59 10l3 8q4 9 21 52t56 135t111 263t182.5 434t272.5 646q4 14 22 15q8 0 14.5 -5.5t10.5 -9.5l374 -889q2 -4 2 -10q0 -16 -14 -22l-772 -365q-4 -2 -10 -2q-27 0 -27 25q0 18 17 24l749 353l-344 808l-594 -1411l1012 488q2 0 4 1t4 1q10 0 15.5 -5t9.5 -9l213 -500 q2 -4 2 -10q0 -10 -9.5 -17.5t-19.5 -7.5q-16 0 -23 16l-198 471l-1047 -501q-4 -2 -10 -2q-16 0 -21.5 8t-5.5 18zM401 1874q0 59 56.5 99.5t131.5 40.5q4 0 8.5 -2t8.5 -5l278 -223q53 4 90 30t37 60q0 35 -40 61.5t-95 26.5q-10 0 -17.5 7.5t-7.5 17.5q0 12 7.5 19.5 t17.5 7.5q37 0 69.5 -10.5t59.5 -29t42 -44t15 -56.5q0 -61 -56 -101t-130 -40q-4 0 -7 2t-7 4l-283 223q-53 -4 -90 -28.5t-37 -59.5q0 -31 25.5 -48t56.5 -27.5t56.5 -18.5t25.5 -20q0 -10 -8 -18.5t-19 -8.5q-37 0 -71.5 11.5t-60 29.5t-41 44t-15.5 56z" />
<glyph unicode="&#xe4;" horiz-adv-x="1464" d="M59 10l3 8q4 9 21 52t56 135t111 263t182.5 434t272.5 646q4 14 22 15q8 0 14.5 -5.5t10.5 -9.5l374 -889q2 -4 2 -10q0 -16 -14 -22l-772 -365q-4 -2 -10 -2q-27 0 -27 25q0 18 17 24l749 353l-344 808l-594 -1411l1012 488q2 0 4 1t4 1q10 0 15.5 -5t9.5 -9l213 -500 q2 -4 2 -10q0 -10 -9.5 -17.5t-19.5 -7.5q-16 0 -23 16l-198 471l-1047 -501q-4 -2 -10 -2q-16 0 -21.5 8t-5.5 18zM471 1895q0 51 35 85t82 34q51 0 85.5 -34t34.5 -85q0 -49 -34.5 -85t-85.5 -36q-47 0 -82 36t-35 85zM518 1895q0 -29 20.5 -49.5t49.5 -20.5t50 20.5 t21 49.5t-21 49t-50 20t-49.5 -20t-20.5 -49zM754 1895q0 51 34.5 85t81.5 34q51 0 86 -34t35 -85q0 -49 -35 -85t-86 -36q-47 0 -81.5 36t-34.5 85zM803 1895q0 -29 19.5 -49.5t47.5 -20.5q29 0 50.5 20.5t21.5 49.5t-21.5 49t-50.5 20t-48 -20t-19 -49z" />
<glyph unicode="&#xe5;" horiz-adv-x="1464" d="M59 10l3 8q4 9 21 52t56 135t111 263t182.5 434t272.5 646q4 14 22 15q8 0 14.5 -5.5t10.5 -9.5l374 -889q2 -4 2 -10q0 -16 -14 -22l-772 -365q-4 -2 -10 -2q-27 0 -27 25q0 18 17 24l749 353l-344 808l-594 -1411l1012 488q2 0 4 1t4 1q10 0 15.5 -5t9.5 -9l213 -500 q2 -4 2 -10q0 -10 -9.5 -17.5t-19.5 -7.5q-16 0 -23 16l-198 471l-1047 -501q-4 -2 -10 -2q-16 0 -21.5 8t-5.5 18zM545 1827q0 78 54 132.5t132 54.5q39 0 74 -14.5t60.5 -40t40 -59.5t14.5 -73t-14.5 -73.5t-40 -60t-60.5 -40t-74 -14.5t-72.5 14.5t-59 40t-40 60 t-14.5 73.5zM596 1827q0 -57 40 -97t95 -40q57 0 97.5 40t40.5 97q0 55 -40.5 95t-97.5 40q-55 0 -95 -39.5t-40 -95.5z" />
<glyph unicode="&#xe6;" horiz-adv-x="2220" d="M59 10l3 8q4 9 21 52t56 135t111 263t182.5 434t272.5 646q4 14 22 15q8 0 14.5 -5.5t10.5 -9.5l374 -889q2 -4 2 -10q0 -16 -14 -22l-772 -365q-4 -2 -10 -2q-27 0 -27 25q0 18 17 24l749 353l-344 808l-594 -1411l1012 488q2 0 4 1t4 1q10 0 15.5 -5t9.5 -9l163 -385 v253q0 27 27 27h721v76h-721q-10 0 -19.5 6t-9.5 18q0 2 4 15l566 991q6 10 20 10q27 0 27 -24q0 -8 -2 -13l-543 -952h705q10 0 17 -7t7 -18v-129q0 -25 -24 -24h-723v-328h723q25 0 24 -26q0 -10 -7 -17.5t-17 -7.5h-748q-20 0 -27 16l-198 471l-1047 -501q-4 -2 -10 -2 q-16 0 -21.5 8t-5.5 18z" />
<glyph unicode="&#xe7;" horiz-adv-x="1585" d="M82 766q0 170 58.5 316.5t157.5 254t229 169t276 61.5q113 0 221.5 -41t199.5 -114t159.5 -175t103.5 -225q2 -4 2 -11q0 -8 -6 -16t-17 -8q-20 0 -28 18q-35 117 -98.5 212.5t-146.5 164t-183.5 106.5t-206.5 38q-139 0 -261 -58.5t-212 -160t-143.5 -237.5t-53.5 -294 t53.5 -294t143.5 -236.5t212 -158t261 -57.5q98 0 191 32t173 90.5t143.5 141.5t104.5 185q6 16 23 16q27 0 26 -26q0 -2 -1 -4t-1 -4q-45 -109 -113.5 -198t-154.5 -152.5t-185.5 -97.5t-205.5 -34q-145 0 -276.5 61.5t-229.5 168t-156.5 252t-58.5 315.5zM526 -303 q0 25 27 24q8 0 16 -17t31.5 -38.5t67.5 -39t124 -17.5q92 0 152.5 28.5t60.5 59.5q0 18 -17.5 34.5t-47 30t-68.5 21.5t-80 8q-10 0 -18 8t-8 19q0 8 6 14l123 174q6 10 22 10q12 0 18.5 -7t6.5 -17t-6 -17l-95 -135q92 -10 153.5 -50t61.5 -93q0 -31 -21.5 -56.5t-57 -44 t-84 -28.5t-101.5 -10t-101 10t-85 28.5t-58.5 44t-21.5 56.5z" />
<glyph unicode="&#xe8;" horiz-adv-x="972" d="M82 530q0 2 4 15l565 991q6 10 21 10q27 0 26 -24q0 -8 -2 -13l-542 -952h704q10 0 17.5 -7t7.5 -18v-129q0 -25 -25 -24h-723v-328h723q25 0 25 -26q0 -10 -7.5 -17.5t-17.5 -7.5h-747q-12 0 -19.5 7t-7.5 18v378q0 27 27 27h720v76h-720q-10 0 -19.5 6t-9.5 18z M217 1989q0 10 9 17.5t18 7.5q8 0 16 -4l481 -332q12 -10 12 -23q0 -10 -9 -17t-19 -7t-12 6l-484 332q-12 8 -12 20z" />
<glyph unicode="&#xe9;" horiz-adv-x="972" d="M82 530q0 2 4 15l565 991q6 10 21 10q27 0 26 -24q0 -8 -2 -13l-542 -952h704q10 0 17.5 -7t7.5 -18v-129q0 -25 -25 -24h-723v-328h723q25 0 25 -26q0 -10 -7.5 -17.5t-17.5 -7.5h-747q-12 0 -19.5 7t-7.5 18v378q0 27 27 27h720v76h-720q-10 0 -19.5 6t-9.5 18z M217 1655q0 12 12 23l481 332q8 4 17 4q8 0 17 -7.5t9 -17.5q0 -12 -12 -20l-483 -332q-4 -6 -12 -6q-10 0 -19.5 7t-9.5 17z" />
<glyph unicode="&#xea;" horiz-adv-x="972" d="M82 530q0 2 4 15l565 991q6 10 21 10q27 0 26 -24q0 -8 -2 -13l-542 -952h704q10 0 17.5 -7t7.5 -18v-129q0 -25 -25 -24h-723v-328h723q25 0 25 -26q0 -10 -7.5 -17.5t-17.5 -7.5h-747q-12 0 -19.5 7t-7.5 18v378q0 27 27 27h720v76h-720q-10 0 -19.5 6t-9.5 18z M131 1655q0 10 8 19l328 331q8 8 20 9q10 0 19 -9l327 -331q8 -12 9 -19q0 -27 -27 -26q-12 0 -18 8l-310 315l-311 -315q-4 -4 -8 -6t-10 -2q-10 0 -18.5 8t-8.5 18z" />
<glyph unicode="&#xeb;" horiz-adv-x="972" d="M82 530q0 2 4 15l565 991q6 10 21 10q27 0 26 -24q0 -8 -2 -13l-542 -952h704q10 0 17.5 -7t7.5 -18v-129q0 -25 -25 -24h-723v-328h723q25 0 25 -26q0 -10 -7.5 -17.5t-17.5 -7.5h-747q-12 0 -19.5 7t-7.5 18v378q0 27 27 27h720v76h-720q-10 0 -19.5 6t-9.5 18z M225 1895q0 51 35 85t82 34q51 0 85.5 -34t34.5 -85q0 -49 -34.5 -85t-85.5 -36q-47 0 -82 36t-35 85zM272 1895q0 -29 20.5 -49.5t49.5 -20.5t50 20.5t21 49.5t-21 49t-50 20t-49.5 -20t-20.5 -49zM508 1895q0 51 34.5 85t81.5 34q51 0 86 -34t35 -85q0 -49 -35 -85 t-86 -36q-47 0 -81.5 36t-34.5 85zM557 1895q0 -29 19.5 -49.5t47.5 -20.5q29 0 50.5 20.5t21.5 49.5t-21.5 49t-50.5 20t-48 -20t-19 -49z" />
<glyph unicode="&#xec;" horiz-adv-x="296" d="M-119 1989q0 10 9 17.5t18 7.5q8 0 16 -4l481 -332q12 -10 12 -23q0 -10 -9 -17t-19 -7t-12 6l-484 332q-12 8 -12 20zM123 14v1506q0 12 7 19t17 7q27 0 27 -26v-1506q0 -24 -27 -24q-10 0 -17 7t-7 17z" />
<glyph unicode="&#xed;" horiz-adv-x="296" d="M-119 1655q0 12 12 23l481 332q8 4 17 4q8 0 17 -7.5t9 -17.5q0 -12 -12 -20l-483 -332q-4 -6 -12 -6q-10 0 -19.5 7t-9.5 17zM123 14v1506q0 12 7 19t17 7q27 0 27 -26v-1506q0 -24 -27 -24q-10 0 -17 7t-7 17z" />
<glyph unicode="&#xee;" horiz-adv-x="296" d="M-207 1655q0 10 8 19l328 331q8 8 20 9q10 0 19 -9l327 -331q8 -12 9 -19q0 -27 -27 -26q-12 0 -18 8l-310 315l-311 -315q-4 -4 -8 -6t-10 -2q-10 0 -18.5 8t-8.5 18zM123 14v1506q0 12 7 19t17 7q27 0 27 -26v-1506q0 -24 -27 -24q-10 0 -17 7t-7 17z" />
<glyph unicode="&#xef;" horiz-adv-x="296" d="M-111 1895q0 51 35 85t82 34q51 0 85.5 -34t34.5 -85q0 -49 -34.5 -85t-85.5 -36q-47 0 -82 36t-35 85zM-64 1895q0 -29 20.5 -49.5t49.5 -20.5t50 20.5t21 49.5t-21 49t-50 20t-49.5 -20t-20.5 -49zM123 14v1506q0 12 7 19t17 7q27 0 27 -26v-1506q0 -24 -27 -24 q-10 0 -17 7t-7 17zM172 1895q0 51 34.5 85t81.5 34q51 0 86 -34t35 -85q0 -49 -35 -85t-86 -36q-47 0 -81.5 36t-34.5 85zM221 1895q0 -29 19.5 -49.5t47.5 -20.5q29 0 50.5 20.5t21.5 49.5t-21.5 49t-50.5 20t-48 -20t-19 -49z" />
<glyph unicode="&#xf0;" horiz-adv-x="1521" d="M59 528q0 10 8.5 18.5t18.5 8.5h133v954q0 10 7 18.5t18 8.5h510q143 0 269 -61.5t219 -166t146.5 -243.5t53.5 -295q0 -160 -55.5 -300t-149.5 -244.5t-219 -165t-264 -60.5h-383q-27 0 -27 27v1357q0 10 7 18.5t20 8.5q10 0 17 -8t7 -19v-829h166q12 0 19.5 -8t7.5 -19 q0 -25 -27 -24h-166v-453h359q131 0 246.5 56.5t202.5 152.5t137.5 227t50.5 283q0 150 -50.5 280t-137.5 227t-202.5 152.5t-246.5 55.5h-484v-1467q1 -24 -26 -24q-10 0 -17.5 7t-7.5 17v486h-133q-10 0 -18.5 7t-8.5 17z" />
<glyph unicode="&#xf1;" horiz-adv-x="1292" d="M82 20v1489q0 27 27 27h133q14 0 22 -12l764 -1409v1405q0 12 7 19t18 7q27 0 26 -26v-1504q1 -26 -26 -26q-14 0 -23 12l-805 1483h-92v-1465q0 -10 -7 -17t-17 -7q-12 0 -19.5 7t-7.5 17zM315 1874q0 59 56.5 99.5t131.5 40.5q4 0 8.5 -2t8.5 -5l278 -223q53 4 90 30 t37 60q0 35 -40 61.5t-95 26.5q-10 0 -17.5 7.5t-7.5 17.5q0 12 7.5 19.5t17.5 7.5q37 0 69.5 -10.5t59.5 -29t42 -44t15 -56.5q0 -61 -56 -101t-130 -40q-4 0 -7 2t-7 4l-283 223q-53 -4 -90 -28.5t-37 -59.5q0 -31 25.5 -48t56.5 -27.5t56.5 -18.5t25.5 -20 q0 -10 -8 -18.5t-19 -8.5q-37 0 -71.5 11.5t-60 29.5t-41 44t-15.5 56z" />
<glyph unicode="&#xf2;" d="M82 768q0 168 57.5 314.5t155.5 254t229 169t277 61.5q147 0 277 -61.5t227.5 -169t155 -254t57.5 -314.5t-56.5 -313.5t-154 -253t-228.5 -170t-278 -62.5t-278.5 62.5t-228.5 170t-154.5 254t-57.5 312.5zM135 768q0 -158 52.5 -294t142.5 -237.5t211 -159t260 -57.5 q137 0 258 57.5t212 159t143 237.5t52 294t-52 294t-143 237.5t-212 159t-258 57.5q-139 0 -260 -57.5t-211 -159t-142.5 -237.5t-52.5 -294zM531 1989q0 10 9 17.5t18 7.5q8 0 16 -4l481 -332q12 -10 12 -23q0 -10 -9 -17t-19 -7t-12 6l-484 332q-12 8 -12 20z" />
<glyph unicode="&#xf3;" d="M82 768q0 168 57.5 314.5t155.5 254t229 169t277 61.5q147 0 277 -61.5t227.5 -169t155 -254t57.5 -314.5t-56.5 -313.5t-154 -253t-228.5 -170t-278 -62.5t-278.5 62.5t-228.5 170t-154.5 254t-57.5 312.5zM135 768q0 -158 52.5 -294t142.5 -237.5t211 -159t260 -57.5 q137 0 258 57.5t212 159t143 237.5t52 294t-52 294t-143 237.5t-212 159t-258 57.5q-139 0 -260 -57.5t-211 -159t-142.5 -237.5t-52.5 -294zM531 1655q0 12 12 23l481 332q8 4 17 4q8 0 17 -7.5t9 -17.5q0 -12 -12 -20l-483 -332q-4 -6 -12 -6q-10 0 -19.5 7t-9.5 17z" />
<glyph unicode="&#xf4;" d="M82 768q0 168 57.5 314.5t155.5 254t229 169t277 61.5q147 0 277 -61.5t227.5 -169t155 -254t57.5 -314.5t-56.5 -313.5t-154 -253t-228.5 -170t-278 -62.5t-278.5 62.5t-228.5 170t-154.5 254t-57.5 312.5zM135 768q0 -158 52.5 -294t142.5 -237.5t211 -159t260 -57.5 q137 0 258 57.5t212 159t143 237.5t52 294t-52 294t-143 237.5t-212 159t-258 57.5q-139 0 -260 -57.5t-211 -159t-142.5 -237.5t-52.5 -294zM444 1655q0 10 8 19l328 331q8 8 20 9q10 0 19 -9l327 -331q8 -12 9 -19q0 -27 -27 -26q-12 0 -18 8l-310 315l-311 -315 q-4 -4 -8 -6t-10 -2q-10 0 -18.5 8t-8.5 18z" />
<glyph unicode="&#xf5;" d="M82 768q0 168 57.5 314.5t155.5 254t229 169t277 61.5q147 0 277 -61.5t227.5 -169t155 -254t57.5 -314.5t-56.5 -313.5t-154 -253t-228.5 -170t-278 -62.5t-278.5 62.5t-228.5 170t-154.5 254t-57.5 312.5zM135 768q0 -158 52.5 -294t142.5 -237.5t211 -159t260 -57.5 q137 0 258 57.5t212 159t143 237.5t52 294t-52 294t-143 237.5t-212 159t-258 57.5q-139 0 -260 -57.5t-211 -159t-142.5 -237.5t-52.5 -294zM469 1874q0 59 56.5 99.5t131.5 40.5q4 0 8.5 -2t8.5 -5l278 -223q53 4 90 30t37 60q0 35 -40 61.5t-95 26.5q-10 0 -17.5 7.5 t-7.5 17.5q0 12 7.5 19.5t17.5 7.5q37 0 69.5 -10.5t59.5 -29t42 -44t15 -56.5q0 -61 -56 -101t-130 -40q-4 0 -7 2t-7 4l-283 223q-53 -4 -90 -28.5t-37 -59.5q0 -31 25.5 -48t56.5 -27.5t56.5 -18.5t25.5 -20q0 -10 -8 -18.5t-19 -8.5q-37 0 -71.5 11.5t-60 29.5t-41 44 t-15.5 56z" />
<glyph unicode="&#xf6;" d="M82 768q0 168 57.5 314.5t155.5 254t229 169t277 61.5q147 0 277 -61.5t227.5 -169t155 -254t57.5 -314.5t-56.5 -313.5t-154 -253t-228.5 -170t-278 -62.5t-278.5 62.5t-228.5 170t-154.5 254t-57.5 312.5zM135 768q0 -158 52.5 -294t142.5 -237.5t211 -159t260 -57.5 q137 0 258 57.5t212 159t143 237.5t52 294t-52 294t-143 237.5t-212 159t-258 57.5q-139 0 -260 -57.5t-211 -159t-142.5 -237.5t-52.5 -294zM539 1895q0 51 35 85t82 34q51 0 85.5 -34t34.5 -85q0 -49 -34.5 -85t-85.5 -36q-47 0 -82 36t-35 85zM586 1895q0 -29 20.5 -49.5 t49.5 -20.5t50 20.5t21 49.5t-21 49t-50 20t-49.5 -20t-20.5 -49zM822 1895q0 51 34.5 85t81.5 34q51 0 86 -34t35 -85q0 -49 -35 -85t-86 -36q-47 0 -81.5 36t-34.5 85zM871 1895q0 -29 19.5 -49.5t47.5 -20.5q29 0 50.5 20.5t21.5 49.5t-21.5 49t-50.5 20t-48 -20t-19 -49 z" />
<glyph unicode="&#xf8;" horiz-adv-x="1595" d="M82 768q0 168 57.5 314.5t155.5 254t229 169t277 61.5q109 0 207 -34t184 -95l63 98q6 10 19 10q10 0 19.5 -7t9.5 -17q0 -6 -5 -15l-65 -102q129 -111 207 -274.5t78 -362.5q0 -168 -56.5 -313.5t-154 -253t-228.5 -170t-278 -62.5q-111 0 -210 34t-185 97l-60 -96 q-10 -12 -22 -12q-10 0 -18.5 7t-8.5 17q0 6 6 17l64 100q-129 111 -207 273.5t-78 361.5zM135 768q0 -186 69.5 -339t188.5 -255l772 1221q-78 57 -171 89t-193 32q-139 0 -260 -57.5t-211 -159t-142.5 -237.5t-52.5 -294zM432 141q80 -59 172.5 -90t196.5 -31 q137 0 258 57.5t212 159t143 237.5t52 294q0 184 -70.5 338t-189.5 256z" />
<glyph unicode="&#xf9;" horiz-adv-x="1331" d="M82 502v1018q0 10 7 18t17 8t18.5 -8t8.5 -18v-1018q0 -100 36 -187.5t99.5 -153t146.5 -103.5t179 -38t180 38t147.5 103.5t99.5 152.5t36 188v1007q0 10 7 18.5t19 8.5h138q10 0 18 -8t8 -19v-1493q0 -12 -8 -19t-18 -7q-25 0 -25 26v1469h-88v-983q0 -111 -40 -208 t-109.5 -169t-164 -114t-200.5 -42t-199.5 42t-163 114t-109.5 169t-40 208zM397 1989q0 10 9 17.5t18 7.5q8 0 16 -4l481 -332q12 -10 12 -23q0 -10 -9 -17t-19 -7t-12 6l-484 332q-12 8 -12 20z" />
<glyph unicode="&#xfa;" horiz-adv-x="1331" d="M82 502v1018q0 10 7 18t17 8t18.5 -8t8.5 -18v-1018q0 -100 36 -187.5t99.5 -153t146.5 -103.5t179 -38t180 38t147.5 103.5t99.5 152.5t36 188v1007q0 10 7 18.5t19 8.5h138q10 0 18 -8t8 -19v-1493q0 -12 -8 -19t-18 -7q-25 0 -25 26v1469h-88v-983q0 -111 -40 -208 t-109.5 -169t-164 -114t-200.5 -42t-199.5 42t-163 114t-109.5 169t-40 208zM397 1655q0 12 12 23l481 332q8 4 17 4q8 0 17 -7.5t9 -17.5q0 -12 -12 -20l-483 -332q-4 -6 -12 -6q-10 0 -19.5 7t-9.5 17z" />
<glyph unicode="&#xfb;" horiz-adv-x="1331" d="M82 502v1018q0 10 7 18t17 8t18.5 -8t8.5 -18v-1018q0 -100 36 -187.5t99.5 -153t146.5 -103.5t179 -38t180 38t147.5 103.5t99.5 152.5t36 188v1007q0 10 7 18.5t19 8.5h138q10 0 18 -8t8 -19v-1493q0 -12 -8 -19t-18 -7q-25 0 -25 26v1469h-88v-983q0 -111 -40 -208 t-109.5 -169t-164 -114t-200.5 -42t-199.5 42t-163 114t-109.5 169t-40 208zM309 1655q0 10 8 19l328 331q8 8 20 9q10 0 19 -9l327 -331q8 -12 9 -19q0 -27 -27 -26q-12 0 -18 8l-310 315l-311 -315q-4 -4 -8 -6t-10 -2q-10 0 -18.5 8t-8.5 18z" />
<glyph unicode="&#xfc;" horiz-adv-x="1331" d="M82 502v1018q0 10 7 18t17 8t18.5 -8t8.5 -18v-1018q0 -100 36 -187.5t99.5 -153t146.5 -103.5t179 -38t180 38t147.5 103.5t99.5 152.5t36 188v1007q0 10 7 18.5t19 8.5h138q10 0 18 -8t8 -19v-1493q0 -12 -8 -19t-18 -7q-25 0 -25 26v1469h-88v-983q0 -111 -40 -208 t-109.5 -169t-164 -114t-200.5 -42t-199.5 42t-163 114t-109.5 169t-40 208zM406 1895q0 51 35 85t82 34q51 0 85.5 -34t34.5 -85q0 -49 -34.5 -85t-85.5 -36q-47 0 -82 36t-35 85zM453 1895q0 -29 20.5 -49.5t49.5 -20.5t50 20.5t21 49.5t-21 49t-50 20t-49.5 -20 t-20.5 -49zM689 1895q0 51 34.5 85t81.5 34q51 0 86 -34t35 -85q0 -49 -35 -85t-86 -36q-47 0 -81.5 36t-34.5 85zM738 1895q0 -29 19.5 -49.5t47.5 -20.5q29 0 50.5 20.5t21.5 49.5t-21.5 49t-50.5 20t-48 -20t-19 -49z" />
<glyph unicode="&#xfd;" horiz-adv-x="1292" d="M53 1520q0 10 6.5 17t16.5 7q20 0 28 -18l347 -996v-8q0 -10 -5 -12l-292 -459h86l944 1481q10 14 24 14q10 0 16.5 -8t6.5 -18t-2 -13l-953 -1497q-8 -10 -24 -10h-146q-14 0 -21 7t-7 18q0 4 2 7t4 7l311 485l-340 987q-2 2 -2 9zM377 1655q0 12 12 23l481 332 q8 4 17 4q8 0 17 -7.5t9 -17.5q0 -12 -12 -20l-483 -332q-4 -6 -12 -6q-10 0 -19.5 7t-9.5 17z" />
<glyph unicode="&#xfe;" horiz-adv-x="940" d="M82 27v1493q0 27 24 26q27 0 27 -26v-1469h76v983q0 10 7 18.5t17 8.5h283q70 0 132.5 -28.5t108.5 -76t72.5 -110t26.5 -131.5q0 -70 -26.5 -131.5t-72.5 -107.5t-108.5 -72.5t-132.5 -26.5h-190q-25 0 -25 24q0 27 25 27h190q59 0 111.5 22.5t92.5 61.5t62.5 91 t22.5 112q0 61 -22.5 114.5t-62.5 93.5t-92.5 63.5t-111.5 23.5h-256v-983q0 -12 -7 -19.5t-17 -7.5h-130q-25 0 -24 27z" />
<glyph unicode="&#xff;" horiz-adv-x="1292" d="M53 1520q0 10 6.5 17t16.5 7q20 0 28 -18l347 -996v-8q0 -10 -5 -12l-292 -459h86l944 1481q10 14 24 14q10 0 16.5 -8t6.5 -18t-2 -13l-953 -1497q-8 -10 -24 -10h-146q-14 0 -21 7t-7 18q0 4 2 7t4 7l311 485l-340 987q-2 2 -2 9zM385 1895q0 51 35 85t82 34 q51 0 85.5 -34t34.5 -85q0 -49 -34.5 -85t-85.5 -36q-47 0 -82 36t-35 85zM432 1895q0 -29 20.5 -49.5t49.5 -20.5t50 20.5t21 49.5t-21 49t-50 20t-49.5 -20t-20.5 -49zM668 1895q0 51 34.5 85t81.5 34q51 0 86 -34t35 -85q0 -49 -35 -85t-86 -36q-47 0 -81.5 36t-34.5 85z M717 1895q0 -29 19.5 -49.5t47.5 -20.5q29 0 50.5 20.5t21.5 49.5t-21.5 49t-50.5 20t-48 -20t-19 -49z" />
<glyph unicode="&#x152;" horiz-adv-x="2312" d="M82 768q0 168 57.5 314.5t155.5 254t229 169t277 61.5q147 0 277 -61.5t227.5 -169t155 -254t57.5 -314.5q0 -23 -1 -46.5t-4 -45.5l490 860q6 10 20 10q27 0 27 -24q0 -8 -2 -13l-543 -952h705q10 0 17 -7t7 -18v-129q0 -25 -24 -24h-723v-328h723q25 0 24 -26 q0 -10 -7 -17.5t-17 -7.5h-748q-12 0 -19 7t-7 18v368q-45 -96 -112 -174t-148.5 -133t-177 -86t-197.5 -31q-147 0 -278.5 62.5t-228.5 170t-154.5 254t-57.5 312.5zM135 768q0 -158 52.5 -294t142.5 -237.5t211 -159t260 -57.5q137 0 258 57.5t212 159t143 237.5t52 294 t-52 294t-143 237.5t-212 159t-258 57.5q-139 0 -260 -57.5t-211 -159t-142.5 -237.5t-52.5 -294zM1450 428q4 0 6 1t6 1h721v76h-704q-6 -20 -13.5 -40t-15.5 -38z" />
<glyph unicode="&#x153;" horiz-adv-x="2312" d="M82 768q0 168 57.5 314.5t155.5 254t229 169t277 61.5q147 0 277 -61.5t227.5 -169t155 -254t57.5 -314.5q0 -23 -1 -46.5t-4 -45.5l490 860q6 10 20 10q27 0 27 -24q0 -8 -2 -13l-543 -952h705q10 0 17 -7t7 -18v-129q0 -25 -24 -24h-723v-328h723q25 0 24 -26 q0 -10 -7 -17.5t-17 -7.5h-748q-12 0 -19 7t-7 18v368q-45 -96 -112 -174t-148.5 -133t-177 -86t-197.5 -31q-147 0 -278.5 62.5t-228.5 170t-154.5 254t-57.5 312.5zM135 768q0 -158 52.5 -294t142.5 -237.5t211 -159t260 -57.5q137 0 258 57.5t212 159t143 237.5t52 294 t-52 294t-143 237.5t-212 159t-258 57.5q-139 0 -260 -57.5t-211 -159t-142.5 -237.5t-52.5 -294zM1450 428q4 0 6 1t6 1h721v76h-704q-6 -20 -13.5 -40t-15.5 -38z" />
<glyph unicode="&#x178;" horiz-adv-x="1292" d="M53 1520q0 10 6.5 17t16.5 7q20 0 28 -18l347 -996v-8q0 -10 -5 -12l-292 -459h86l944 1481q10 14 24 14q10 0 16.5 -8t6.5 -18t-2 -13l-953 -1497q-8 -10 -24 -10h-146q-14 0 -21 7t-7 18q0 4 2 7t4 7l311 485l-340 987q-2 2 -2 9zM385 1895q0 51 35 85t82 34 q51 0 85.5 -34t34.5 -85q0 -49 -34.5 -85t-85.5 -36q-47 0 -82 36t-35 85zM432 1895q0 -29 20.5 -49.5t49.5 -20.5t50 20.5t21 49.5t-21 49t-50 20t-49.5 -20t-20.5 -49zM668 1895q0 51 34.5 85t81.5 34q51 0 86 -34t35 -85q0 -49 -35 -85t-86 -36q-47 0 -81.5 36t-34.5 85z M717 1895q0 -29 19.5 -49.5t47.5 -20.5q29 0 50.5 20.5t21.5 49.5t-21.5 49t-50.5 20t-48 -20t-19 -49z" />
<glyph unicode="&#x2c6;" horiz-adv-x="874" d="M82 778q0 10 8 19l328 331q8 8 20 9q10 0 19 -9l327 -331q8 -12 9 -19q0 -27 -27 -26q-12 0 -18 8l-310 315l-311 -315q-4 -4 -8 -6t-10 -2q-10 0 -18.5 8t-8.5 18z" />
<glyph unicode="&#x2dc;" horiz-adv-x="825" d="M82 997q0 59 56.5 99.5t131.5 40.5q4 0 8.5 -2t8.5 -5l278 -223q53 4 90 30t37 60q0 35 -40 61.5t-95 26.5q-10 0 -17.5 7.5t-7.5 17.5q0 12 7.5 19.5t17.5 7.5q37 0 69.5 -10.5t59.5 -29t42 -44t15 -56.5q0 -61 -56 -101t-130 -40q-4 0 -7 2t-7 4l-283 223 q-53 -4 -90 -28.5t-37 -59.5q0 -31 25.5 -48t56.5 -27.5t56.5 -18.5t25.5 -20q0 -10 -8 -18.5t-19 -8.5q-37 0 -71.5 11.5t-60 29.5t-41 44t-15.5 56z" />
<glyph unicode="&#x2000;" horiz-adv-x="1007" />
<glyph unicode="&#x2001;" horiz-adv-x="2014" />
<glyph unicode="&#x2002;" horiz-adv-x="1007" />
<glyph unicode="&#x2003;" horiz-adv-x="2014" />
<glyph unicode="&#x2004;" horiz-adv-x="671" />
<glyph unicode="&#x2005;" horiz-adv-x="503" />
<glyph unicode="&#x2006;" horiz-adv-x="335" />
<glyph unicode="&#x2007;" horiz-adv-x="335" />
<glyph unicode="&#x2008;" horiz-adv-x="251" />
<glyph unicode="&#x2009;" horiz-adv-x="402" />
<glyph unicode="&#x200a;" horiz-adv-x="111" />
<glyph unicode="&#x2010;" horiz-adv-x="692" d="M82 530q0 10 8 18.5t19 8.5h475q12 0 19 -8.5t7 -18.5q0 -25 -26 -24h-475q-10 0 -18.5 7t-8.5 17z" />
<glyph unicode="&#x2011;" horiz-adv-x="692" d="M82 530q0 10 8 18.5t19 8.5h475q12 0 19 -8.5t7 -18.5q0 -25 -26 -24h-475q-10 0 -18.5 7t-8.5 17z" />
<glyph unicode="&#x2012;" horiz-adv-x="692" d="M82 530q0 10 8 18.5t19 8.5h475q12 0 19 -8.5t7 -18.5q0 -25 -26 -24h-475q-10 0 -18.5 7t-8.5 17z" />
<glyph unicode="&#x2013;" horiz-adv-x="1052" d="M82 530q0 10 8 18.5t19 8.5h835q12 0 19.5 -8.5t7.5 -18.5q0 -25 -27 -24h-835q-10 0 -18.5 7t-8.5 17z" />
<glyph unicode="&#x2014;" horiz-adv-x="1345" d="M82 530q0 10 8 18.5t19 8.5h1130q12 0 19.5 -8.5t7.5 -18.5q0 -25 -27 -24h-1130q-10 0 -18.5 7t-8.5 17z" />
<glyph unicode="&#x2018;" horiz-adv-x="401" d="M82 1231q0 31 9 47t18 39l141 217q8 12 20 12q27 0 27 -26q0 -10 -4 -15l-98 -153q53 0 88.5 -34t35.5 -87q0 -47 -34.5 -82t-85.5 -35q-49 0 -83 35t-34 82zM129 1231q0 -29 20.5 -48.5t49.5 -19.5t49 19.5t20 48.5t-20.5 50.5t-48.5 21.5q-29 0 -49.5 -21.5 t-20.5 -50.5z" />
<glyph unicode="&#x2019;" horiz-adv-x="403" d="M82 1430q0 47 36 81.5t85 34.5q47 0 83 -34.5t36 -81.5q0 -29 -10.5 -46.5t-18.5 -40.5l-141 -217q-6 -12 -21 -12q-12 0 -19.5 7t-7.5 18q0 12 5 16l100 154q-51 0 -89 33.5t-38 87.5zM131 1430q0 -29 21.5 -50.5t50.5 -21.5t49 21.5t20 50.5t-20.5 48t-48.5 19 q-29 0 -50.5 -19t-21.5 -48z" />
<glyph unicode="&#x201a;" horiz-adv-x="405" d="M82 111q0 47 36 81.5t85 34.5q47 0 83 -34.5t36 -81.5q0 -29 -10.5 -45.5t-18.5 -40.5l-141 -218q-6 -12 -21 -12q-12 0 -19.5 7.5t-7.5 17.5q0 12 5 16l100 154q-51 0 -89 33.5t-38 87.5zM131 111q0 -29 21.5 -50.5t50.5 -21.5t49 21.5t20 50.5t-20.5 48t-48.5 19 q-29 0 -50.5 -19t-21.5 -48z" />
<glyph unicode="&#x201c;" horiz-adv-x="690" d="M82 1231q0 31 9 47t18 39l141 217q8 12 20 12q27 0 27 -26q0 -10 -4 -15l-98 -153q53 0 88.5 -34t35.5 -87q0 -47 -34.5 -82t-85.5 -35q-49 0 -83 35t-34 82zM129 1231q0 -29 20.5 -48.5t49.5 -19.5t49 19.5t20 48.5t-20.5 50.5t-48.5 21.5q-29 0 -49.5 -21.5 t-20.5 -50.5zM365 1231q0 29 10 46t18 40l142 217q6 12 20 12q12 0 19.5 -7t7.5 -17q0 -12 -4 -17l-101 -153q51 0 89 -34t38 -87q0 -47 -36 -82t-85 -35q-47 0 -82.5 35t-35.5 82zM414 1231q0 -29 20.5 -48.5t48.5 -19.5q29 0 50.5 19.5t21.5 48.5t-21.5 50.5t-50.5 21.5 t-49 -21.5t-20 -50.5z" />
<glyph unicode="&#x201d;" horiz-adv-x="686" d="M82 1430q0 47 36 81.5t85 34.5q47 0 83 -34.5t36 -81.5q0 -29 -10.5 -46.5t-18.5 -40.5l-141 -217q-6 -12 -21 -12q-12 0 -19.5 7t-7.5 18q0 12 5 16l100 154q-51 0 -89 33.5t-38 87.5zM131 1430q0 -29 21.5 -50.5t50.5 -21.5t49 21.5t20 50.5t-20.5 48t-48.5 19 q-29 0 -50.5 -19t-21.5 -48zM367 1430q0 47 34.5 81.5t85.5 34.5q49 0 83 -34.5t34 -81.5q0 -31 -9 -47.5t-17 -39.5l-142 -217q-10 -12 -20 -12q-27 0 -27 27q0 10 4 14l99 154q-53 0 -89 33.5t-36 87.5zM418 1430q0 -29 20.5 -50.5t48.5 -21.5q29 0 49.5 21.5t20.5 50.5 t-20.5 48t-49.5 19t-49 -19t-20 -48z" />
<glyph unicode="&#x201e;" horiz-adv-x="673" d="M82 111q0 47 36 81.5t85 34.5q47 0 83 -34.5t36 -81.5q0 -29 -10.5 -45.5t-18.5 -40.5l-141 -218q-6 -12 -21 -12q-12 0 -19.5 7.5t-7.5 17.5q0 12 5 16l100 154q-51 0 -89 33.5t-38 87.5zM131 111q0 -29 21.5 -50.5t50.5 -21.5t49 21.5t20 50.5t-20.5 48t-48.5 19 q-29 0 -50.5 -19t-21.5 -48zM352 111q0 47 36 81.5t85 34.5q47 0 83 -34.5t36 -81.5q0 -29 -10.5 -45.5t-18.5 -40.5l-141 -218q-6 -12 -21 -12q-12 0 -19 7.5t-7 17.5q0 12 4 16l100 154q-51 0 -89 33.5t-38 87.5zM401 111q0 -29 21.5 -50.5t50.5 -21.5t49.5 21.5 t20.5 50.5t-20.5 48t-49.5 19t-50.5 -19t-21.5 -48z" />
<glyph unicode="&#x2022;" horiz-adv-x="540" d="M82 522q0 78 54 132.5t132 54.5q39 0 74 -14.5t60.5 -40t40 -59.5t14.5 -73t-14.5 -73.5t-40 -60.5t-60.5 -40t-74 -14t-72.5 14t-59 40t-40 60.5t-14.5 73.5z" />
<glyph unicode="&#x2026;" horiz-adv-x="1040" d="M82 111q0 47 35 81.5t86 34.5q47 0 81.5 -34.5t34.5 -81.5q0 -51 -34.5 -86t-81.5 -35q-51 0 -86 34.5t-35 86.5zM131 111q0 -31 21.5 -51.5t50.5 -20.5t48 20.5t19 51.5q0 29 -19 48t-48 19t-50.5 -19.5t-21.5 -47.5zM401 111q0 47 35 81.5t86 34.5q47 0 82 -34.5 t35 -81.5q0 -51 -35 -86t-82 -35q-51 0 -86 34.5t-35 86.5zM451 111q0 -31 21.5 -51.5t49.5 -20.5q29 0 48.5 20.5t19.5 51.5q0 29 -19.5 48t-48.5 19t-50 -19.5t-21 -47.5zM721 111q0 47 35 81.5t86 34.5q47 0 81.5 -34.5t34.5 -81.5q0 -51 -34.5 -86t-81.5 -35 q-51 0 -86 34.5t-35 86.5zM770 111q0 -31 21.5 -51.5t50.5 -20.5t48 20.5t19 51.5q0 29 -19 48t-48 19t-50.5 -19.5t-21.5 -47.5z" />
<glyph unicode="&#x202f;" horiz-adv-x="402" />
<glyph unicode="&#x2039;" horiz-adv-x="548" d="M76 459q0 10 4 16l332 467q6 12 20 12q25 0 25 -26q0 -10 -4 -15l-322 -452l322 -453q4 -6 4 -18q0 -23 -25 -23q-10 0 -20 10l-332 467q-4 4 -4 15z" />
<glyph unicode="&#x203a;" horiz-adv-x="548" d="M76 -10q0 12 4 18l321 453l-321 452q-4 4 -4 15q0 27 24 26q14 0 21 -12l332 -467q4 -6 4 -16t-4 -15l-332 -467q-11 -10 -21 -10q-25 0 -24 23z" />
<glyph unicode="&#x205f;" horiz-adv-x="503" />
<glyph unicode="&#x20ac;" horiz-adv-x="1443" d="M59 528q0 27 27 27h176q-10 41 -14 100h-162q-27 0 -27 25q0 10 7.5 18.5t19.5 8.5h156q-2 18 -2 35.5v37.5q0 160 46 303.5t124.5 251t183 170t221.5 62.5q92 0 178 -40t159 -113t126 -175t82 -227q0 -27 -21 -27q-6 0 -13 4t-9 12q-29 117 -79 213.5t-115.5 164 t-144.5 105.5t-163 38q-109 0 -206 -56.5t-168.5 -156t-113.5 -235.5t-42 -294v-37.5t4 -35.5h545q10 0 19 -8.5t9 -18.5t-9 -17.5t-19 -7.5h-541q2 -29 6 -53t10 -47h525q10 0 19 -8t9 -19q0 -10 -9 -17t-19 -7h-512q29 -109 78 -198t113.5 -154.5t141 -101.5t160.5 -36 q78 0 150.5 32t136 90.5t114 142t80.5 186.5q12 16 25 16q10 0 15 -8t5 -14t-2 -8q-35 -109 -89 -198t-122.5 -152.5t-148.5 -97.5t-164 -34q-90 0 -174 38t-155.5 107.5t-127 168t-86.5 221.5h-186q-27 0 -27 24z" />
<glyph unicode="&#x2122;" horiz-adv-x="1116" d="M82 1458v58q0 20 20 20h306q20 0 20 -20t-20 -21h-285v-16h129q20 0 20 -21v-366q-4 -19 -22 -19q-20 0 -21 21v344h-127q-20 0 -20 20zM449 1083v426q0 20 20 21h39q12 0 18 -10l230 -418h16l-59 117q-2 2 -2 8v282q0 20 20 21h39q12 0 18 -10l250 -430q2 -4 2 -11 q0 -20 -20 -20q-12 0 -19 10l-243 420h-6v-256l71 -143q2 -2 2 -9q0 -20 -20 -20h-62q-12 0 -16 10l-231 418h-7v-406q0 -20 -20 -20t-20 20z" />
<glyph unicode="&#xe000;" horiz-adv-x="1536" d="M0 0v1536h1536v-1536h-1536z" />
</font>
</defs>
</svg>
